<?xml version="1.0" encoding="utf-8" standalone="no"?>
<!DOCTYPE svg PUBLIC "-//W3C//DTD SVG 1.1//EN"
  "http://www.w3.org/Graphics/SVG/1.1/DTD/svg11.dtd">
<svg xmlns:xlink="http://www.w3.org/1999/xlink" width="504.620987pt" height="295.630125pt" viewBox="0 0 504.620987 295.630125" xmlns="http://www.w3.org/2000/svg" version="1.1">
 <metadata>
  <rdf:RDF xmlns:dc="http://purl.org/dc/elements/1.1/" xmlns:cc="http://creativecommons.org/ns#" xmlns:rdf="http://www.w3.org/1999/02/22-rdf-syntax-ns#">
   <cc:Work>
    <dc:type rdf:resource="http://purl.org/dc/dcmitype/StillImage"/>
    <dc:date>2025-02-24T15:14:42.535345</dc:date>
    <dc:format>image/svg+xml</dc:format>
    <dc:creator>
     <cc:Agent>
      <dc:title>Matplotlib v3.8.0, https://matplotlib.org/</dc:title>
     </cc:Agent>
    </dc:creator>
   </cc:Work>
  </rdf:RDF>
 </metadata>
 <defs>
  <style type="text/css">*{stroke-linejoin: round; stroke-linecap: butt}</style>
 </defs>
 <g id="figure_1">
  <g id="patch_1">
   <path d="M 0 295.630125 
L 504.620987 295.630125 
L 504.620987 0 
L 0 0 
z
" style="fill: #ffffff"/>
  </g>
  <g id="axes_1">
   <g id="patch_2">
    <path d="M 140.256 64.896045 
C 131.168983 64.896045 122.133598 66.265004 113.454414 68.956778 
C 104.77523 71.648551 96.550876 75.632549 89.058583 80.774477 
C 81.566291 85.916405 74.8912 92.157831 69.258319 99.288366 
C 63.625439 106.418902 59.098779 114.357515 55.830927 122.836608 
C 52.563075 131.315701 50.591166 140.238919 49.981671 149.305472 
C 49.372176 158.372026 50.132021 167.478884 52.235592 176.319069 
C 54.339163 185.159254 57.762555 193.632306 62.390372 201.452612 
C 67.018189 209.272918 72.797841 216.351609 79.534503 222.450073 
C 86.271165 228.548536 93.888284 233.59747 102.129098 237.426683 
C 110.369911 241.255896 119.140772 243.821872 128.146027 245.038117 
C 137.151283 246.254363 146.288598 246.107055 155.249969 244.60116 
C 164.211339 243.095266 172.894928 240.247897 181.008026 236.155034 
C 189.121124 232.062172 196.571533 226.770326 203.108113 220.457878 
C 209.644692 214.145429 215.193161 206.884112 219.566488 198.918694 
C 223.939815 190.953275 227.088303 182.374274 228.90582 173.470876 
C 230.723337 164.567477 231.18923 155.440858 230.287795 146.398663 
L 214.399831 147.982568 
C 215.14219 155.429081 214.758513 162.945121 213.261734 170.277331 
C 211.764955 177.609542 209.172083 184.674602 205.570519 191.234358 
C 201.968956 197.794114 197.399629 203.774023 192.016563 208.97251 
C 186.633498 214.170997 180.497867 218.528987 173.816492 221.89958 
C 167.135118 225.270173 159.983926 227.615065 152.603974 228.855213 
C 145.224022 230.095362 137.699174 230.216674 130.283081 229.21506 
C 122.866989 228.213446 115.643927 226.100289 108.857375 222.94682 
C 102.070822 219.793351 95.797901 215.635405 90.250061 210.613141 
C 84.702222 205.590877 79.942509 199.761367 76.131365 193.321115 
C 72.320222 186.880863 69.500958 179.903055 67.768605 172.622903 
C 66.036252 165.34275 65.410498 157.842985 65.912435 150.376411 
C 66.414372 142.909838 68.038297 135.561306 70.729469 128.578523 
C 73.420641 121.59574 77.148479 115.058059 81.787322 109.185853 
C 86.426165 103.313648 91.923298 98.17365 98.093422 93.939121 
C 104.263545 89.704592 111.036542 86.423652 118.184106 84.206898 
C 125.331669 81.990143 132.772574 80.862765 140.256 80.862765 
z
" style="fill: #a4cb73; stroke: #ffffff; stroke-linejoin: miter"/>
   </g>
   <g id="patch_3">
    <path d="M 230.287795 146.398663 
C 230.047409 143.987383 229.71025 141.586732 229.277133 139.20252 
C 228.844017 136.818308 228.315292 134.452458 227.692238 132.110693 
L 212.262314 136.216005 
C 212.775417 138.144517 213.210837 140.092864 213.567521 142.056333 
C 213.924206 144.019802 214.201866 145.996808 214.399831 147.982568 
z
" style="fill: #4397b0; stroke: #ffffff; stroke-linejoin: miter"/>
   </g>
   <g id="patch_4">
    <path d="M 227.692238 132.110693 
C 222.565088 112.840161 211.208296 95.794801 195.398786 83.641593 
C 179.589276 71.488384 160.196955 64.896048 140.256015 64.896045 
L 140.256012 80.862765 
C 156.677963 80.862768 172.648109 86.29175 185.667706 96.300275 
C 198.687302 106.3088 208.039955 120.346154 212.262314 136.216005 
z
" style="fill: #f19e38; stroke: #ffffff; stroke-linejoin: miter"/>
   </g>
   <g id="patch_5">
    <path d="M 140.256 80.862765 
C 130.670015 80.862765 121.173485 82.712639 112.288386 86.31071 
C 103.403287 89.90878 95.295446 95.187893 88.410511 101.857884 
L 110.630007 124.793416 
C 114.564255 120.981993 119.197307 117.965356 124.274506 115.909316 
C 129.351706 113.853276 134.778295 112.796205 140.256 112.796205 
z
" style="fill: #398068; stroke: #ffffff; stroke-linejoin: miter"/>
   </g>
   <g id="patch_6">
    <path d="M 88.410511 101.857884 
C 87.505342 102.734794 86.622566 103.634529 85.763036 104.556219 
C 84.903506 105.477908 84.067498 106.421257 83.255819 107.385354 
L 107.684468 127.95197 
C 108.148284 127.401058 108.626003 126.862001 109.117163 126.335321 
C 109.608323 125.808641 110.112767 125.294507 110.630007 124.793416 
z
" style="fill: #428a69; stroke: #ffffff; stroke-linejoin: miter"/>
   </g>
   <g id="patch_7">
    <path d="M 83.255819 107.385354 
C 75.405227 116.710143 69.96146 127.820471 67.403602 139.738561 
C 64.845744 151.656651 65.2511 164.022315 68.583994 175.747302 
C 71.916889 187.472289 78.076596 198.202247 86.521025 206.992874 
C 94.965454 215.783501 105.439397 222.369128 117.021085 226.170181 
L 126.978906 195.829014 
C 120.360798 193.656984 114.375688 189.893768 109.5503 184.870553 
C 104.724912 179.847337 101.205079 173.715933 99.300568 167.015941 
C 97.396057 160.315948 97.164425 153.249854 98.626058 146.439517 
C 100.087691 139.62918 103.198415 133.280421 107.684468 127.95197 
z
" style="fill: #52976a; stroke: #ffffff; stroke-linejoin: miter"/>
   </g>
   <g id="patch_8">
    <path d="M 117.021085 226.170181 
C 119.017007 226.825232 121.039738 227.395586 123.083856 227.879713 
C 125.127974 228.363839 127.191652 228.761306 129.269356 229.071048 
L 133.977918 197.486652 
C 132.790658 197.309657 131.611414 197.082533 130.443346 196.805889 
C 129.275279 196.529246 128.119433 196.203329 126.978906 195.829014 
z
" style="fill: #64a46c; stroke: #ffffff; stroke-linejoin: miter"/>
   </g>
   <g id="patch_9">
    <path d="M 129.269356 229.071048 
C 141.694681 230.923399 154.388988 229.603643 166.167545 225.234948 
C 177.946101 220.866254 188.430719 213.588892 196.64289 204.082045 
L 172.47708 183.207222 
C 167.784411 188.639706 161.793201 192.798198 155.062597 195.294595 
C 148.331993 197.790992 141.078103 198.545139 133.977918 197.486652 
z
" style="fill: #78b16e; stroke: #ffffff; stroke-linejoin: miter"/>
   </g>
   <g id="patch_10">
    <path d="M 196.64289 204.082045 
C 199.734459 200.503078 202.478275 196.637887 204.837178 192.538816 
C 207.196081 188.439744 209.159373 184.125383 210.700465 179.654159 
L 180.50998 169.24843 
C 179.629356 171.803415 178.507475 174.268765 177.15953 176.611091 
C 175.811586 178.953417 174.243691 181.162098 172.47708 183.207222 
z
" style="fill: #8ebd70; stroke: #ffffff; stroke-linejoin: miter"/>
   </g>
   <g id="patch_11">
    <path d="M 210.700465 179.654159 
C 211.830207 176.376403 212.729803 173.02379 213.392694 169.620765 
C 214.055585 166.217741 214.480157 162.772595 214.663312 159.310449 
L 182.774464 157.623453 
C 182.669804 159.601822 182.427192 161.570477 182.048397 163.515062 
C 181.669602 165.459648 181.155547 167.375427 180.50998 169.24843 
z
" style="fill: #a4cb73; stroke: #ffffff; stroke-linejoin: miter"/>
   </g>
   <g id="patch_12">
    <path d="M 214.663312 159.310449 
C 214.763187 157.422543 214.791174 155.53152 214.747212 153.641485 
C 214.703251 151.751451 214.587373 149.863774 214.399829 147.982553 
L 182.623903 151.15037 
C 182.73107 152.225353 182.797286 153.304025 182.822407 154.384045 
C 182.847528 155.464065 182.831535 156.54465 182.774464 157.623453 
z
" style="fill: #bbd875; stroke: #ffffff; stroke-linejoin: miter"/>
   </g>
   <g id="patch_13">
    <path d="M 214.399829 147.982553 
C 214.306066 147.042028 214.194416 146.103372 214.064938 145.167095 
C 213.93546 144.230818 213.788179 143.297089 213.623174 142.366416 
L 182.1801 147.941148 
C 182.274388 148.472962 182.358549 149.006521 182.432536 149.541536 
C 182.506523 150.076552 182.570324 150.612927 182.623903 151.15037 
z
" style="fill: #2a64c5; stroke: #ffffff; stroke-linejoin: miter"/>
   </g>
   <g id="patch_14">
    <path d="M 213.623174 142.366416 
C 213.439835 141.332327 213.234652 140.302231 213.007766 139.276816 
C 212.780879 138.251401 212.532338 137.230898 212.26231 136.21599 
L 181.402463 144.426619 
C 181.556765 145.006567 181.698788 145.589711 181.828438 146.175663 
C 181.958087 146.761614 182.075334 147.350241 182.1801 147.941148 
z
" style="fill: #377eba; stroke: #ffffff; stroke-linejoin: miter"/>
   </g>
   <g id="patch_15">
    <path d="M 212.26231 136.21599 
C 210.151407 128.28211 206.743674 120.751382 202.17709 113.928723 
C 197.610507 107.106064 191.947549 101.084817 185.417508 96.108781 
L 166.062576 121.508214 
C 169.794028 124.351663 173.030004 127.792376 175.63948 131.691038 
C 178.248957 135.5897 180.196232 139.892974 181.402463 144.426619 
z
" style="fill: #ea3a24; stroke: #ffffff; stroke-linejoin: miter"/>
   </g>
   <g id="patch_16">
    <path d="M 185.417508 96.108781 
C 183.663098 94.771882 181.850188 93.513544 179.984137 92.337486 
C 178.118087 91.161428 176.200734 90.06881 174.237746 89.062861 
L 159.67414 117.481974 
C 160.795848 118.056802 161.891478 118.681155 162.957793 119.353188 
C 164.024108 120.025221 165.060056 120.744272 166.062576 121.508214 
z
" style="fill: #ec5a29; stroke: #ffffff; stroke-linejoin: miter"/>
   </g>
   <g id="patch_17">
    <path d="M 174.237746 89.062861 
C 173.396578 88.631798 172.547284 88.216779 171.690325 87.81803 
C 170.833366 87.419281 169.968897 87.036874 169.097389 86.671017 
L 156.736794 116.115206 
C 157.234799 116.324267 157.728781 116.542786 158.218471 116.770642 
C 158.708162 116.998499 159.193473 117.235652 159.67414 117.481974 
z
" style="fill: #ef8733; stroke: #ffffff; stroke-linejoin: miter"/>
   </g>
   <g id="patch_18">
    <path d="M 169.097389 86.671017 
C 164.542572 84.758916 159.808873 83.304503 154.96621 82.329259 
C 150.123547 81.354014 145.19588 80.862765 140.255993 80.862765 
L 140.255996 112.796205 
C 143.078789 112.796205 145.894598 113.076919 148.661834 113.634201 
C 151.42907 114.191484 154.134041 115.022577 156.736794 116.115206 
z
" style="fill: #f4b63f; stroke: #ffffff; stroke-linejoin: miter"/>
   </g>
   <g id="matplotlib.axis_1"/>
   <g id="matplotlib.axis_2"/>
   <g id="text_1">
    <!-- Trichoptera -->
    <g transform="translate(17.324853 231.917043) scale(0.1 -0.1)">
     <defs>
      <path id="DejaVuSans-54" d="M -19 4666 
L 3928 4666 
L 3928 4134 
L 2272 4134 
L 2272 0 
L 1638 0 
L 1638 4134 
L -19 4134 
L -19 4666 
z
" transform="scale(0.015625)"/>
      <path id="DejaVuSans-72" d="M 2631 2963 
Q 2534 3019 2420 3045 
Q 2306 3072 2169 3072 
Q 1681 3072 1420 2755 
Q 1159 2438 1159 1844 
L 1159 0 
L 581 0 
L 581 3500 
L 1159 3500 
L 1159 2956 
Q 1341 3275 1631 3429 
Q 1922 3584 2338 3584 
Q 2397 3584 2469 3576 
Q 2541 3569 2628 3553 
L 2631 2963 
z
" transform="scale(0.015625)"/>
      <path id="DejaVuSans-69" d="M 603 3500 
L 1178 3500 
L 1178 0 
L 603 0 
L 603 3500 
z
M 603 4863 
L 1178 4863 
L 1178 4134 
L 603 4134 
L 603 4863 
z
" transform="scale(0.015625)"/>
      <path id="DejaVuSans-63" d="M 3122 3366 
L 3122 2828 
Q 2878 2963 2633 3030 
Q 2388 3097 2138 3097 
Q 1578 3097 1268 2742 
Q 959 2388 959 1747 
Q 959 1106 1268 751 
Q 1578 397 2138 397 
Q 2388 397 2633 464 
Q 2878 531 3122 666 
L 3122 134 
Q 2881 22 2623 -34 
Q 2366 -91 2075 -91 
Q 1284 -91 818 406 
Q 353 903 353 1747 
Q 353 2603 823 3093 
Q 1294 3584 2113 3584 
Q 2378 3584 2631 3529 
Q 2884 3475 3122 3366 
z
" transform="scale(0.015625)"/>
      <path id="DejaVuSans-68" d="M 3513 2113 
L 3513 0 
L 2938 0 
L 2938 2094 
Q 2938 2591 2744 2837 
Q 2550 3084 2163 3084 
Q 1697 3084 1428 2787 
Q 1159 2491 1159 1978 
L 1159 0 
L 581 0 
L 581 4863 
L 1159 4863 
L 1159 2956 
Q 1366 3272 1645 3428 
Q 1925 3584 2291 3584 
Q 2894 3584 3203 3211 
Q 3513 2838 3513 2113 
z
" transform="scale(0.015625)"/>
      <path id="DejaVuSans-6f" d="M 1959 3097 
Q 1497 3097 1228 2736 
Q 959 2375 959 1747 
Q 959 1119 1226 758 
Q 1494 397 1959 397 
Q 2419 397 2687 759 
Q 2956 1122 2956 1747 
Q 2956 2369 2687 2733 
Q 2419 3097 1959 3097 
z
M 1959 3584 
Q 2709 3584 3137 3096 
Q 3566 2609 3566 1747 
Q 3566 888 3137 398 
Q 2709 -91 1959 -91 
Q 1206 -91 779 398 
Q 353 888 353 1747 
Q 353 2609 779 3096 
Q 1206 3584 1959 3584 
z
" transform="scale(0.015625)"/>
      <path id="DejaVuSans-70" d="M 1159 525 
L 1159 -1331 
L 581 -1331 
L 581 3500 
L 1159 3500 
L 1159 2969 
Q 1341 3281 1617 3432 
Q 1894 3584 2278 3584 
Q 2916 3584 3314 3078 
Q 3713 2572 3713 1747 
Q 3713 922 3314 415 
Q 2916 -91 2278 -91 
Q 1894 -91 1617 61 
Q 1341 213 1159 525 
z
M 3116 1747 
Q 3116 2381 2855 2742 
Q 2594 3103 2138 3103 
Q 1681 3103 1420 2742 
Q 1159 2381 1159 1747 
Q 1159 1113 1420 752 
Q 1681 391 2138 391 
Q 2594 391 2855 752 
Q 3116 1113 3116 1747 
z
" transform="scale(0.015625)"/>
      <path id="DejaVuSans-74" d="M 1172 4494 
L 1172 3500 
L 2356 3500 
L 2356 3053 
L 1172 3053 
L 1172 1153 
Q 1172 725 1289 603 
Q 1406 481 1766 481 
L 2356 481 
L 2356 0 
L 1766 0 
Q 1100 0 847 248 
Q 594 497 594 1153 
L 594 3053 
L 172 3053 
L 172 3500 
L 594 3500 
L 594 4494 
L 1172 4494 
z
" transform="scale(0.015625)"/>
      <path id="DejaVuSans-65" d="M 3597 1894 
L 3597 1613 
L 953 1613 
Q 991 1019 1311 708 
Q 1631 397 2203 397 
Q 2534 397 2845 478 
Q 3156 559 3463 722 
L 3463 178 
Q 3153 47 2828 -22 
Q 2503 -91 2169 -91 
Q 1331 -91 842 396 
Q 353 884 353 1716 
Q 353 2575 817 3079 
Q 1281 3584 2069 3584 
Q 2775 3584 3186 3129 
Q 3597 2675 3597 1894 
z
M 3022 2063 
Q 3016 2534 2758 2815 
Q 2500 3097 2075 3097 
Q 1594 3097 1305 2825 
Q 1016 2553 972 2059 
L 3022 2063 
z
" transform="scale(0.015625)"/>
      <path id="DejaVuSans-61" d="M 2194 1759 
Q 1497 1759 1228 1600 
Q 959 1441 959 1056 
Q 959 750 1161 570 
Q 1363 391 1709 391 
Q 2188 391 2477 730 
Q 2766 1069 2766 1631 
L 2766 1759 
L 2194 1759 
z
M 3341 1997 
L 3341 0 
L 2766 0 
L 2766 531 
Q 2569 213 2275 61 
Q 1981 -91 1556 -91 
Q 1019 -91 701 211 
Q 384 513 384 1019 
Q 384 1609 779 1909 
Q 1175 2209 1959 2209 
L 2766 2209 
L 2766 2266 
Q 2766 2663 2505 2880 
Q 2244 3097 1772 3097 
Q 1472 3097 1187 3025 
Q 903 2953 641 2809 
L 641 3341 
Q 956 3463 1253 3523 
Q 1550 3584 1831 3584 
Q 2591 3584 2966 3190 
Q 3341 2797 3341 1997 
z
" transform="scale(0.015625)"/>
     </defs>
     <use xlink:href="#DejaVuSans-54"/>
     <use xlink:href="#DejaVuSans-72" x="46.333984"/>
     <use xlink:href="#DejaVuSans-69" x="87.447266"/>
     <use xlink:href="#DejaVuSans-63" x="115.230469"/>
     <use xlink:href="#DejaVuSans-68" x="170.210938"/>
     <use xlink:href="#DejaVuSans-6f" x="233.589844"/>
     <use xlink:href="#DejaVuSans-70" x="294.771484"/>
     <use xlink:href="#DejaVuSans-74" x="358.248047"/>
     <use xlink:href="#DejaVuSans-65" x="397.457031"/>
     <use xlink:href="#DejaVuSans-72" x="458.980469"/>
     <use xlink:href="#DejaVuSans-61" x="500.09375"/>
    </g>
   </g>
   <g id="text_2">
    <!-- Plecoptera -->
    <g transform="translate(238.179247 140.344735) scale(0.1 -0.1)">
     <defs>
      <path id="DejaVuSans-50" d="M 1259 4147 
L 1259 2394 
L 2053 2394 
Q 2494 2394 2734 2622 
Q 2975 2850 2975 3272 
Q 2975 3691 2734 3919 
Q 2494 4147 2053 4147 
L 1259 4147 
z
M 628 4666 
L 2053 4666 
Q 2838 4666 3239 4311 
Q 3641 3956 3641 3272 
Q 3641 2581 3239 2228 
Q 2838 1875 2053 1875 
L 1259 1875 
L 1259 0 
L 628 0 
L 628 4666 
z
" transform="scale(0.015625)"/>
      <path id="DejaVuSans-6c" d="M 603 4863 
L 1178 4863 
L 1178 0 
L 603 0 
L 603 4863 
z
" transform="scale(0.015625)"/>
     </defs>
     <use xlink:href="#DejaVuSans-50"/>
     <use xlink:href="#DejaVuSans-6c" x="60.302734"/>
     <use xlink:href="#DejaVuSans-65" x="88.085938"/>
     <use xlink:href="#DejaVuSans-63" x="149.609375"/>
     <use xlink:href="#DejaVuSans-6f" x="204.589844"/>
     <use xlink:href="#DejaVuSans-70" x="265.771484"/>
     <use xlink:href="#DejaVuSans-74" x="329.248047"/>
     <use xlink:href="#DejaVuSans-65" x="368.457031"/>
     <use xlink:href="#DejaVuSans-72" x="429.980469"/>
     <use xlink:href="#DejaVuSans-61" x="471.09375"/>
    </g>
   </g>
   <g id="text_3">
    <!-- Ephemeroptera -->
    <g transform="translate(200.913064 79.227715) scale(0.1 -0.1)">
     <defs>
      <path id="DejaVuSans-45" d="M 628 4666 
L 3578 4666 
L 3578 4134 
L 1259 4134 
L 1259 2753 
L 3481 2753 
L 3481 2222 
L 1259 2222 
L 1259 531 
L 3634 531 
L 3634 0 
L 628 0 
L 628 4666 
z
" transform="scale(0.015625)"/>
      <path id="DejaVuSans-6d" d="M 3328 2828 
Q 3544 3216 3844 3400 
Q 4144 3584 4550 3584 
Q 5097 3584 5394 3201 
Q 5691 2819 5691 2113 
L 5691 0 
L 5113 0 
L 5113 2094 
Q 5113 2597 4934 2840 
Q 4756 3084 4391 3084 
Q 3944 3084 3684 2787 
Q 3425 2491 3425 1978 
L 3425 0 
L 2847 0 
L 2847 2094 
Q 2847 2600 2669 2842 
Q 2491 3084 2119 3084 
Q 1678 3084 1418 2786 
Q 1159 2488 1159 1978 
L 1159 0 
L 581 0 
L 581 3500 
L 1159 3500 
L 1159 2956 
Q 1356 3278 1631 3431 
Q 1906 3584 2284 3584 
Q 2666 3584 2933 3390 
Q 3200 3197 3328 2828 
z
" transform="scale(0.015625)"/>
     </defs>
     <use xlink:href="#DejaVuSans-45"/>
     <use xlink:href="#DejaVuSans-70" x="63.183594"/>
     <use xlink:href="#DejaVuSans-68" x="126.660156"/>
     <use xlink:href="#DejaVuSans-65" x="190.039062"/>
     <use xlink:href="#DejaVuSans-6d" x="251.5625"/>
     <use xlink:href="#DejaVuSans-65" x="348.974609"/>
     <use xlink:href="#DejaVuSans-72" x="410.498047"/>
     <use xlink:href="#DejaVuSans-6f" x="449.361328"/>
     <use xlink:href="#DejaVuSans-70" x="510.542969"/>
     <use xlink:href="#DejaVuSans-74" x="574.019531"/>
     <use xlink:href="#DejaVuSans-65" x="613.228516"/>
     <use xlink:href="#DejaVuSans-72" x="674.751953"/>
     <use xlink:href="#DejaVuSans-61" x="715.865234"/>
    </g>
   </g>
   <g id="text_4">
    <!-- EPT-14 dataset -->
    <g transform="translate(95.3385 16.318125) scale(0.12 -0.12)">
     <defs>
      <path id="DejaVuSans-2d" d="M 313 2009 
L 1997 2009 
L 1997 1497 
L 313 1497 
L 313 2009 
z
" transform="scale(0.015625)"/>
      <path id="DejaVuSans-31" d="M 794 531 
L 1825 531 
L 1825 4091 
L 703 3866 
L 703 4441 
L 1819 4666 
L 2450 4666 
L 2450 531 
L 3481 531 
L 3481 0 
L 794 0 
L 794 531 
z
" transform="scale(0.015625)"/>
      <path id="DejaVuSans-34" d="M 2419 4116 
L 825 1625 
L 2419 1625 
L 2419 4116 
z
M 2253 4666 
L 3047 4666 
L 3047 1625 
L 3713 1625 
L 3713 1100 
L 3047 1100 
L 3047 0 
L 2419 0 
L 2419 1100 
L 313 1100 
L 313 1709 
L 2253 4666 
z
" transform="scale(0.015625)"/>
      <path id="DejaVuSans-20" transform="scale(0.015625)"/>
      <path id="DejaVuSans-64" d="M 2906 2969 
L 2906 4863 
L 3481 4863 
L 3481 0 
L 2906 0 
L 2906 525 
Q 2725 213 2448 61 
Q 2172 -91 1784 -91 
Q 1150 -91 751 415 
Q 353 922 353 1747 
Q 353 2572 751 3078 
Q 1150 3584 1784 3584 
Q 2172 3584 2448 3432 
Q 2725 3281 2906 2969 
z
M 947 1747 
Q 947 1113 1208 752 
Q 1469 391 1925 391 
Q 2381 391 2643 752 
Q 2906 1113 2906 1747 
Q 2906 2381 2643 2742 
Q 2381 3103 1925 3103 
Q 1469 3103 1208 2742 
Q 947 2381 947 1747 
z
" transform="scale(0.015625)"/>
      <path id="DejaVuSans-73" d="M 2834 3397 
L 2834 2853 
Q 2591 2978 2328 3040 
Q 2066 3103 1784 3103 
Q 1356 3103 1142 2972 
Q 928 2841 928 2578 
Q 928 2378 1081 2264 
Q 1234 2150 1697 2047 
L 1894 2003 
Q 2506 1872 2764 1633 
Q 3022 1394 3022 966 
Q 3022 478 2636 193 
Q 2250 -91 1575 -91 
Q 1294 -91 989 -36 
Q 684 19 347 128 
L 347 722 
Q 666 556 975 473 
Q 1284 391 1588 391 
Q 1994 391 2212 530 
Q 2431 669 2431 922 
Q 2431 1156 2273 1281 
Q 2116 1406 1581 1522 
L 1381 1569 
Q 847 1681 609 1914 
Q 372 2147 372 2553 
Q 372 3047 722 3315 
Q 1072 3584 1716 3584 
Q 2034 3584 2315 3537 
Q 2597 3491 2834 3397 
z
" transform="scale(0.015625)"/>
     </defs>
     <use xlink:href="#DejaVuSans-45"/>
     <use xlink:href="#DejaVuSans-50" x="63.183594"/>
     <use xlink:href="#DejaVuSans-54" x="123.486328"/>
     <use xlink:href="#DejaVuSans-2d" x="175.445312"/>
     <use xlink:href="#DejaVuSans-31" x="211.529297"/>
     <use xlink:href="#DejaVuSans-34" x="275.152344"/>
     <use xlink:href="#DejaVuSans-20" x="338.775391"/>
     <use xlink:href="#DejaVuSans-64" x="370.5625"/>
     <use xlink:href="#DejaVuSans-61" x="434.039062"/>
     <use xlink:href="#DejaVuSans-74" x="495.318359"/>
     <use xlink:href="#DejaVuSans-61" x="534.527344"/>
     <use xlink:href="#DejaVuSans-73" x="595.806641"/>
     <use xlink:href="#DejaVuSans-65" x="647.90625"/>
     <use xlink:href="#DejaVuSans-74" x="709.429688"/>
    </g>
   </g>
   <g id="legend_1">
    <g id="patch_19">
     <path d="M 320.2288 266.960062 
L 495.420987 266.960062 
Q 497.420987 266.960062 497.420987 264.960062 
L 497.420987 45.788187 
Q 497.420987 43.788187 495.420987 43.788187 
L 320.2288 43.788187 
Q 318.2288 43.788187 318.2288 45.788187 
L 318.2288 264.960062 
Q 318.2288 266.960062 320.2288 266.960062 
z
" style="fill: #ffffff; opacity: 0.8; stroke: #cccccc; stroke-linejoin: miter"/>
    </g>
    <g id="text_5">
     <!-- Legend -->
     <g transform="translate(389.456144 55.386625) scale(0.1 -0.1)">
      <defs>
       <path id="DejaVuSans-4c" d="M 628 4666 
L 1259 4666 
L 1259 531 
L 3531 531 
L 3531 0 
L 628 0 
L 628 4666 
z
" transform="scale(0.015625)"/>
       <path id="DejaVuSans-67" d="M 2906 1791 
Q 2906 2416 2648 2759 
Q 2391 3103 1925 3103 
Q 1463 3103 1205 2759 
Q 947 2416 947 1791 
Q 947 1169 1205 825 
Q 1463 481 1925 481 
Q 2391 481 2648 825 
Q 2906 1169 2906 1791 
z
M 3481 434 
Q 3481 -459 3084 -895 
Q 2688 -1331 1869 -1331 
Q 1566 -1331 1297 -1286 
Q 1028 -1241 775 -1147 
L 775 -588 
Q 1028 -725 1275 -790 
Q 1522 -856 1778 -856 
Q 2344 -856 2625 -561 
Q 2906 -266 2906 331 
L 2906 616 
Q 2728 306 2450 153 
Q 2172 0 1784 0 
Q 1141 0 747 490 
Q 353 981 353 1791 
Q 353 2603 747 3093 
Q 1141 3584 1784 3584 
Q 2172 3584 2450 3431 
Q 2728 3278 2906 2969 
L 2906 3500 
L 3481 3500 
L 3481 434 
z
" transform="scale(0.015625)"/>
       <path id="DejaVuSans-6e" d="M 3513 2113 
L 3513 0 
L 2938 0 
L 2938 2094 
Q 2938 2591 2744 2837 
Q 2550 3084 2163 3084 
Q 1697 3084 1428 2787 
Q 1159 2491 1159 1978 
L 1159 0 
L 581 0 
L 581 3500 
L 1159 3500 
L 1159 2956 
Q 1366 3272 1645 3428 
Q 1925 3584 2291 3584 
Q 2894 3584 3203 3211 
Q 3513 2838 3513 2113 
z
" transform="scale(0.015625)"/>
      </defs>
      <use xlink:href="#DejaVuSans-4c"/>
      <use xlink:href="#DejaVuSans-65" x="53.962891"/>
      <use xlink:href="#DejaVuSans-67" x="115.486328"/>
      <use xlink:href="#DejaVuSans-65" x="178.962891"/>
      <use xlink:href="#DejaVuSans-6e" x="240.486328"/>
      <use xlink:href="#DejaVuSans-64" x="303.865234"/>
     </g>
    </g>
    <g id="patch_20">
     <path d="M 322.2288 70.06475 
L 342.2288 70.06475 
L 342.2288 63.06475 
L 322.2288 63.06475 
z
" style="fill: #f4b63f"/>
    </g>
    <g id="text_6">
     <!-- Baetis rhodani -->
     <g transform="translate(350.2288 70.06475) scale(0.1 -0.1)">
      <defs>
       <path id="DejaVuSans-42" d="M 1259 2228 
L 1259 519 
L 2272 519 
Q 2781 519 3026 730 
Q 3272 941 3272 1375 
Q 3272 1813 3026 2020 
Q 2781 2228 2272 2228 
L 1259 2228 
z
M 1259 4147 
L 1259 2741 
L 2194 2741 
Q 2656 2741 2882 2914 
Q 3109 3088 3109 3444 
Q 3109 3797 2882 3972 
Q 2656 4147 2194 4147 
L 1259 4147 
z
M 628 4666 
L 2241 4666 
Q 2963 4666 3353 4366 
Q 3744 4066 3744 3513 
Q 3744 3084 3544 2831 
Q 3344 2578 2956 2516 
Q 3422 2416 3680 2098 
Q 3938 1781 3938 1306 
Q 3938 681 3513 340 
Q 3088 0 2303 0 
L 628 0 
L 628 4666 
z
" transform="scale(0.015625)"/>
      </defs>
      <use xlink:href="#DejaVuSans-42"/>
      <use xlink:href="#DejaVuSans-61" x="68.603516"/>
      <use xlink:href="#DejaVuSans-65" x="129.882812"/>
      <use xlink:href="#DejaVuSans-74" x="191.40625"/>
      <use xlink:href="#DejaVuSans-69" x="230.615234"/>
      <use xlink:href="#DejaVuSans-73" x="258.398438"/>
      <use xlink:href="#DejaVuSans-20" x="310.498047"/>
      <use xlink:href="#DejaVuSans-72" x="342.285156"/>
      <use xlink:href="#DejaVuSans-68" x="381.648438"/>
      <use xlink:href="#DejaVuSans-6f" x="445.027344"/>
      <use xlink:href="#DejaVuSans-64" x="506.208984"/>
      <use xlink:href="#DejaVuSans-61" x="569.685547"/>
      <use xlink:href="#DejaVuSans-6e" x="630.964844"/>
      <use xlink:href="#DejaVuSans-69" x="694.34375"/>
     </g>
    </g>
    <g id="patch_21">
     <path d="M 322.2288 84.742875 
L 342.2288 84.742875 
L 342.2288 77.742875 
L 322.2288 77.742875 
z
" style="fill: #ef8733"/>
    </g>
    <g id="text_7">
     <!-- Baetis vernus -->
     <g transform="translate(350.2288 84.742875) scale(0.1 -0.1)">
      <defs>
       <path id="DejaVuSans-76" d="M 191 3500 
L 800 3500 
L 1894 563 
L 2988 3500 
L 3597 3500 
L 2284 0 
L 1503 0 
L 191 3500 
z
" transform="scale(0.015625)"/>
       <path id="DejaVuSans-75" d="M 544 1381 
L 544 3500 
L 1119 3500 
L 1119 1403 
Q 1119 906 1312 657 
Q 1506 409 1894 409 
Q 2359 409 2629 706 
Q 2900 1003 2900 1516 
L 2900 3500 
L 3475 3500 
L 3475 0 
L 2900 0 
L 2900 538 
Q 2691 219 2414 64 
Q 2138 -91 1772 -91 
Q 1169 -91 856 284 
Q 544 659 544 1381 
z
M 1991 3584 
L 1991 3584 
z
" transform="scale(0.015625)"/>
      </defs>
      <use xlink:href="#DejaVuSans-42"/>
      <use xlink:href="#DejaVuSans-61" x="68.603516"/>
      <use xlink:href="#DejaVuSans-65" x="129.882812"/>
      <use xlink:href="#DejaVuSans-74" x="191.40625"/>
      <use xlink:href="#DejaVuSans-69" x="230.615234"/>
      <use xlink:href="#DejaVuSans-73" x="258.398438"/>
      <use xlink:href="#DejaVuSans-20" x="310.498047"/>
      <use xlink:href="#DejaVuSans-76" x="342.285156"/>
      <use xlink:href="#DejaVuSans-65" x="401.464844"/>
      <use xlink:href="#DejaVuSans-72" x="462.988281"/>
      <use xlink:href="#DejaVuSans-6e" x="502.351562"/>
      <use xlink:href="#DejaVuSans-75" x="565.730469"/>
      <use xlink:href="#DejaVuSans-73" x="629.109375"/>
     </g>
    </g>
    <g id="patch_22">
     <path d="M 322.2288 99.421 
L 342.2288 99.421 
L 342.2288 92.421 
L 322.2288 92.421 
z
" style="fill: #ec5a29"/>
    </g>
    <g id="text_8">
     <!-- Caenis horaria -->
     <g transform="translate(350.2288 99.421) scale(0.1 -0.1)">
      <defs>
       <path id="DejaVuSans-43" d="M 4122 4306 
L 4122 3641 
Q 3803 3938 3442 4084 
Q 3081 4231 2675 4231 
Q 1875 4231 1450 3742 
Q 1025 3253 1025 2328 
Q 1025 1406 1450 917 
Q 1875 428 2675 428 
Q 3081 428 3442 575 
Q 3803 722 4122 1019 
L 4122 359 
Q 3791 134 3420 21 
Q 3050 -91 2638 -91 
Q 1578 -91 968 557 
Q 359 1206 359 2328 
Q 359 3453 968 4101 
Q 1578 4750 2638 4750 
Q 3056 4750 3426 4639 
Q 3797 4528 4122 4306 
z
" transform="scale(0.015625)"/>
      </defs>
      <use xlink:href="#DejaVuSans-43"/>
      <use xlink:href="#DejaVuSans-61" x="69.824219"/>
      <use xlink:href="#DejaVuSans-65" x="131.103516"/>
      <use xlink:href="#DejaVuSans-6e" x="192.626953"/>
      <use xlink:href="#DejaVuSans-69" x="256.005859"/>
      <use xlink:href="#DejaVuSans-73" x="283.789062"/>
      <use xlink:href="#DejaVuSans-20" x="335.888672"/>
      <use xlink:href="#DejaVuSans-68" x="367.675781"/>
      <use xlink:href="#DejaVuSans-6f" x="431.054688"/>
      <use xlink:href="#DejaVuSans-72" x="492.236328"/>
      <use xlink:href="#DejaVuSans-61" x="533.349609"/>
      <use xlink:href="#DejaVuSans-72" x="594.628906"/>
      <use xlink:href="#DejaVuSans-69" x="635.742188"/>
      <use xlink:href="#DejaVuSans-61" x="663.525391"/>
     </g>
    </g>
    <g id="patch_23">
     <path d="M 322.2288 114.099125 
L 342.2288 114.099125 
L 342.2288 107.099125 
L 322.2288 107.099125 
z
" style="fill: #ea3a24"/>
    </g>
    <g id="text_9">
     <!-- Ephemera danica -->
     <g transform="translate(350.2288 114.099125) scale(0.1 -0.1)">
      <use xlink:href="#DejaVuSans-45"/>
      <use xlink:href="#DejaVuSans-70" x="63.183594"/>
      <use xlink:href="#DejaVuSans-68" x="126.660156"/>
      <use xlink:href="#DejaVuSans-65" x="190.039062"/>
      <use xlink:href="#DejaVuSans-6d" x="251.5625"/>
      <use xlink:href="#DejaVuSans-65" x="348.974609"/>
      <use xlink:href="#DejaVuSans-72" x="410.498047"/>
      <use xlink:href="#DejaVuSans-61" x="451.611328"/>
      <use xlink:href="#DejaVuSans-20" x="512.890625"/>
      <use xlink:href="#DejaVuSans-64" x="544.677734"/>
      <use xlink:href="#DejaVuSans-61" x="608.154297"/>
      <use xlink:href="#DejaVuSans-6e" x="669.433594"/>
      <use xlink:href="#DejaVuSans-69" x="732.8125"/>
      <use xlink:href="#DejaVuSans-63" x="760.595703"/>
      <use xlink:href="#DejaVuSans-61" x="815.576172"/>
     </g>
    </g>
    <g id="patch_24">
     <path d="M 322.2288 128.77725 
L 342.2288 128.77725 
L 342.2288 121.77725 
L 322.2288 121.77725 
z
" style="fill: #377eba"/>
    </g>
    <g id="text_10">
     <!-- Amphinemura standfussi -->
     <g transform="translate(350.2288 128.77725) scale(0.1 -0.1)">
      <defs>
       <path id="DejaVuSans-41" d="M 2188 4044 
L 1331 1722 
L 3047 1722 
L 2188 4044 
z
M 1831 4666 
L 2547 4666 
L 4325 0 
L 3669 0 
L 3244 1197 
L 1141 1197 
L 716 0 
L 50 0 
L 1831 4666 
z
" transform="scale(0.015625)"/>
       <path id="DejaVuSans-66" d="M 2375 4863 
L 2375 4384 
L 1825 4384 
Q 1516 4384 1395 4259 
Q 1275 4134 1275 3809 
L 1275 3500 
L 2222 3500 
L 2222 3053 
L 1275 3053 
L 1275 0 
L 697 0 
L 697 3053 
L 147 3053 
L 147 3500 
L 697 3500 
L 697 3744 
Q 697 4328 969 4595 
Q 1241 4863 1831 4863 
L 2375 4863 
z
" transform="scale(0.015625)"/>
      </defs>
      <use xlink:href="#DejaVuSans-41"/>
      <use xlink:href="#DejaVuSans-6d" x="68.408203"/>
      <use xlink:href="#DejaVuSans-70" x="165.820312"/>
      <use xlink:href="#DejaVuSans-68" x="229.296875"/>
      <use xlink:href="#DejaVuSans-69" x="292.675781"/>
      <use xlink:href="#DejaVuSans-6e" x="320.458984"/>
      <use xlink:href="#DejaVuSans-65" x="383.837891"/>
      <use xlink:href="#DejaVuSans-6d" x="445.361328"/>
      <use xlink:href="#DejaVuSans-75" x="542.773438"/>
      <use xlink:href="#DejaVuSans-72" x="606.152344"/>
      <use xlink:href="#DejaVuSans-61" x="647.265625"/>
      <use xlink:href="#DejaVuSans-20" x="708.544922"/>
      <use xlink:href="#DejaVuSans-73" x="740.332031"/>
      <use xlink:href="#DejaVuSans-74" x="792.431641"/>
      <use xlink:href="#DejaVuSans-61" x="831.640625"/>
      <use xlink:href="#DejaVuSans-6e" x="892.919922"/>
      <use xlink:href="#DejaVuSans-64" x="956.298828"/>
      <use xlink:href="#DejaVuSans-66" x="1019.775391"/>
      <use xlink:href="#DejaVuSans-75" x="1054.980469"/>
      <use xlink:href="#DejaVuSans-73" x="1118.359375"/>
      <use xlink:href="#DejaVuSans-73" x="1170.458984"/>
      <use xlink:href="#DejaVuSans-69" x="1222.558594"/>
     </g>
    </g>
    <g id="patch_25">
     <path d="M 322.2288 143.455375 
L 342.2288 143.455375 
L 342.2288 136.455375 
L 322.2288 136.455375 
z
" style="fill: #2a64c5"/>
    </g>
    <g id="text_11">
     <!-- Nemoura cinerea -->
     <g transform="translate(350.2288 143.455375) scale(0.1 -0.1)">
      <defs>
       <path id="DejaVuSans-4e" d="M 628 4666 
L 1478 4666 
L 3547 763 
L 3547 4666 
L 4159 4666 
L 4159 0 
L 3309 0 
L 1241 3903 
L 1241 0 
L 628 0 
L 628 4666 
z
" transform="scale(0.015625)"/>
      </defs>
      <use xlink:href="#DejaVuSans-4e"/>
      <use xlink:href="#DejaVuSans-65" x="74.804688"/>
      <use xlink:href="#DejaVuSans-6d" x="136.328125"/>
      <use xlink:href="#DejaVuSans-6f" x="233.740234"/>
      <use xlink:href="#DejaVuSans-75" x="294.921875"/>
      <use xlink:href="#DejaVuSans-72" x="358.300781"/>
      <use xlink:href="#DejaVuSans-61" x="399.414062"/>
      <use xlink:href="#DejaVuSans-20" x="460.693359"/>
      <use xlink:href="#DejaVuSans-63" x="492.480469"/>
      <use xlink:href="#DejaVuSans-69" x="547.460938"/>
      <use xlink:href="#DejaVuSans-6e" x="575.244141"/>
      <use xlink:href="#DejaVuSans-65" x="638.623047"/>
      <use xlink:href="#DejaVuSans-72" x="700.146484"/>
      <use xlink:href="#DejaVuSans-65" x="739.009766"/>
      <use xlink:href="#DejaVuSans-61" x="800.533203"/>
     </g>
    </g>
    <g id="patch_26">
     <path d="M 322.2288 158.1335 
L 342.2288 158.1335 
L 342.2288 151.1335 
L 322.2288 151.1335 
z
" style="fill: #bbd875"/>
    </g>
    <g id="text_12">
     <!-- Anabolia nervosa -->
     <g transform="translate(350.2288 158.1335) scale(0.1 -0.1)">
      <defs>
       <path id="DejaVuSans-62" d="M 3116 1747 
Q 3116 2381 2855 2742 
Q 2594 3103 2138 3103 
Q 1681 3103 1420 2742 
Q 1159 2381 1159 1747 
Q 1159 1113 1420 752 
Q 1681 391 2138 391 
Q 2594 391 2855 752 
Q 3116 1113 3116 1747 
z
M 1159 2969 
Q 1341 3281 1617 3432 
Q 1894 3584 2278 3584 
Q 2916 3584 3314 3078 
Q 3713 2572 3713 1747 
Q 3713 922 3314 415 
Q 2916 -91 2278 -91 
Q 1894 -91 1617 61 
Q 1341 213 1159 525 
L 1159 0 
L 581 0 
L 581 4863 
L 1159 4863 
L 1159 2969 
z
" transform="scale(0.015625)"/>
      </defs>
      <use xlink:href="#DejaVuSans-41"/>
      <use xlink:href="#DejaVuSans-6e" x="68.408203"/>
      <use xlink:href="#DejaVuSans-61" x="131.787109"/>
      <use xlink:href="#DejaVuSans-62" x="193.066406"/>
      <use xlink:href="#DejaVuSans-6f" x="256.542969"/>
      <use xlink:href="#DejaVuSans-6c" x="317.724609"/>
      <use xlink:href="#DejaVuSans-69" x="345.507812"/>
      <use xlink:href="#DejaVuSans-61" x="373.291016"/>
      <use xlink:href="#DejaVuSans-20" x="434.570312"/>
      <use xlink:href="#DejaVuSans-6e" x="466.357422"/>
      <use xlink:href="#DejaVuSans-65" x="529.736328"/>
      <use xlink:href="#DejaVuSans-72" x="591.259766"/>
      <use xlink:href="#DejaVuSans-76" x="632.373047"/>
      <use xlink:href="#DejaVuSans-6f" x="691.552734"/>
      <use xlink:href="#DejaVuSans-73" x="752.734375"/>
      <use xlink:href="#DejaVuSans-61" x="804.833984"/>
     </g>
    </g>
    <g id="patch_27">
     <path d="M 322.2288 172.811625 
L 342.2288 172.811625 
L 342.2288 165.811625 
L 322.2288 165.811625 
z
" style="fill: #a4cb73"/>
    </g>
    <g id="text_13">
     <!-- Athripsodes cinereus -->
     <g transform="translate(350.2288 172.811625) scale(0.1 -0.1)">
      <use xlink:href="#DejaVuSans-41"/>
      <use xlink:href="#DejaVuSans-74" x="66.658203"/>
      <use xlink:href="#DejaVuSans-68" x="105.867188"/>
      <use xlink:href="#DejaVuSans-72" x="169.246094"/>
      <use xlink:href="#DejaVuSans-69" x="210.359375"/>
      <use xlink:href="#DejaVuSans-70" x="238.142578"/>
      <use xlink:href="#DejaVuSans-73" x="301.619141"/>
      <use xlink:href="#DejaVuSans-6f" x="353.71875"/>
      <use xlink:href="#DejaVuSans-64" x="414.900391"/>
      <use xlink:href="#DejaVuSans-65" x="478.376953"/>
      <use xlink:href="#DejaVuSans-73" x="539.900391"/>
      <use xlink:href="#DejaVuSans-20" x="592"/>
      <use xlink:href="#DejaVuSans-63" x="623.787109"/>
      <use xlink:href="#DejaVuSans-69" x="678.767578"/>
      <use xlink:href="#DejaVuSans-6e" x="706.550781"/>
      <use xlink:href="#DejaVuSans-65" x="769.929688"/>
      <use xlink:href="#DejaVuSans-72" x="831.453125"/>
      <use xlink:href="#DejaVuSans-65" x="870.316406"/>
      <use xlink:href="#DejaVuSans-75" x="931.839844"/>
      <use xlink:href="#DejaVuSans-73" x="995.21875"/>
     </g>
    </g>
    <g id="patch_28">
     <path d="M 322.2288 187.48975 
L 342.2288 187.48975 
L 342.2288 180.48975 
L 322.2288 180.48975 
z
" style="fill: #8ebd70"/>
    </g>
    <g id="text_14">
     <!-- Chaetopteryx villosa -->
     <g transform="translate(350.2288 187.48975) scale(0.1 -0.1)">
      <defs>
       <path id="DejaVuSans-79" d="M 2059 -325 
Q 1816 -950 1584 -1140 
Q 1353 -1331 966 -1331 
L 506 -1331 
L 506 -850 
L 844 -850 
Q 1081 -850 1212 -737 
Q 1344 -625 1503 -206 
L 1606 56 
L 191 3500 
L 800 3500 
L 1894 763 
L 2988 3500 
L 3597 3500 
L 2059 -325 
z
" transform="scale(0.015625)"/>
       <path id="DejaVuSans-78" d="M 3513 3500 
L 2247 1797 
L 3578 0 
L 2900 0 
L 1881 1375 
L 863 0 
L 184 0 
L 1544 1831 
L 300 3500 
L 978 3500 
L 1906 2253 
L 2834 3500 
L 3513 3500 
z
" transform="scale(0.015625)"/>
      </defs>
      <use xlink:href="#DejaVuSans-43"/>
      <use xlink:href="#DejaVuSans-68" x="69.824219"/>
      <use xlink:href="#DejaVuSans-61" x="133.203125"/>
      <use xlink:href="#DejaVuSans-65" x="194.482422"/>
      <use xlink:href="#DejaVuSans-74" x="256.005859"/>
      <use xlink:href="#DejaVuSans-6f" x="295.214844"/>
      <use xlink:href="#DejaVuSans-70" x="356.396484"/>
      <use xlink:href="#DejaVuSans-74" x="419.873047"/>
      <use xlink:href="#DejaVuSans-65" x="459.082031"/>
      <use xlink:href="#DejaVuSans-72" x="520.605469"/>
      <use xlink:href="#DejaVuSans-79" x="561.71875"/>
      <use xlink:href="#DejaVuSans-78" x="620.898438"/>
      <use xlink:href="#DejaVuSans-20" x="680.078125"/>
      <use xlink:href="#DejaVuSans-76" x="711.865234"/>
      <use xlink:href="#DejaVuSans-69" x="771.044922"/>
      <use xlink:href="#DejaVuSans-6c" x="798.828125"/>
      <use xlink:href="#DejaVuSans-6c" x="826.611328"/>
      <use xlink:href="#DejaVuSans-6f" x="854.394531"/>
      <use xlink:href="#DejaVuSans-73" x="915.576172"/>
      <use xlink:href="#DejaVuSans-61" x="967.675781"/>
     </g>
    </g>
    <g id="patch_29">
     <path d="M 322.2288 202.167875 
L 342.2288 202.167875 
L 342.2288 195.167875 
L 322.2288 195.167875 
z
" style="fill: #78b16e"/>
    </g>
    <g id="text_15">
     <!-- Goera pilosa -->
     <g transform="translate(350.2288 202.167875) scale(0.1 -0.1)">
      <defs>
       <path id="DejaVuSans-47" d="M 3809 666 
L 3809 1919 
L 2778 1919 
L 2778 2438 
L 4434 2438 
L 4434 434 
Q 4069 175 3628 42 
Q 3188 -91 2688 -91 
Q 1594 -91 976 548 
Q 359 1188 359 2328 
Q 359 3472 976 4111 
Q 1594 4750 2688 4750 
Q 3144 4750 3555 4637 
Q 3966 4525 4313 4306 
L 4313 3634 
Q 3963 3931 3569 4081 
Q 3175 4231 2741 4231 
Q 1884 4231 1454 3753 
Q 1025 3275 1025 2328 
Q 1025 1384 1454 906 
Q 1884 428 2741 428 
Q 3075 428 3337 486 
Q 3600 544 3809 666 
z
" transform="scale(0.015625)"/>
      </defs>
      <use xlink:href="#DejaVuSans-47"/>
      <use xlink:href="#DejaVuSans-6f" x="77.490234"/>
      <use xlink:href="#DejaVuSans-65" x="138.671875"/>
      <use xlink:href="#DejaVuSans-72" x="200.195312"/>
      <use xlink:href="#DejaVuSans-61" x="241.308594"/>
      <use xlink:href="#DejaVuSans-20" x="302.587891"/>
      <use xlink:href="#DejaVuSans-70" x="334.375"/>
      <use xlink:href="#DejaVuSans-69" x="397.851562"/>
      <use xlink:href="#DejaVuSans-6c" x="425.634766"/>
      <use xlink:href="#DejaVuSans-6f" x="453.417969"/>
      <use xlink:href="#DejaVuSans-73" x="514.599609"/>
      <use xlink:href="#DejaVuSans-61" x="566.699219"/>
     </g>
    </g>
    <g id="patch_30">
     <path d="M 322.2288 216.846 
L 342.2288 216.846 
L 342.2288 209.846 
L 322.2288 209.846 
z
" style="fill: #64a46c"/>
    </g>
    <g id="text_16">
     <!-- Halesus radiatus -->
     <g transform="translate(350.2288 216.846) scale(0.1 -0.1)">
      <defs>
       <path id="DejaVuSans-48" d="M 628 4666 
L 1259 4666 
L 1259 2753 
L 3553 2753 
L 3553 4666 
L 4184 4666 
L 4184 0 
L 3553 0 
L 3553 2222 
L 1259 2222 
L 1259 0 
L 628 0 
L 628 4666 
z
" transform="scale(0.015625)"/>
      </defs>
      <use xlink:href="#DejaVuSans-48"/>
      <use xlink:href="#DejaVuSans-61" x="75.195312"/>
      <use xlink:href="#DejaVuSans-6c" x="136.474609"/>
      <use xlink:href="#DejaVuSans-65" x="164.257812"/>
      <use xlink:href="#DejaVuSans-73" x="225.78125"/>
      <use xlink:href="#DejaVuSans-75" x="277.880859"/>
      <use xlink:href="#DejaVuSans-73" x="341.259766"/>
      <use xlink:href="#DejaVuSans-20" x="393.359375"/>
      <use xlink:href="#DejaVuSans-72" x="425.146484"/>
      <use xlink:href="#DejaVuSans-61" x="466.259766"/>
      <use xlink:href="#DejaVuSans-64" x="527.539062"/>
      <use xlink:href="#DejaVuSans-69" x="591.015625"/>
      <use xlink:href="#DejaVuSans-61" x="618.798828"/>
      <use xlink:href="#DejaVuSans-74" x="680.078125"/>
      <use xlink:href="#DejaVuSans-75" x="719.287109"/>
      <use xlink:href="#DejaVuSans-73" x="782.666016"/>
     </g>
    </g>
    <g id="patch_31">
     <path d="M 322.2288 231.524125 
L 342.2288 231.524125 
L 342.2288 224.524125 
L 322.2288 224.524125 
z
" style="fill: #52976a"/>
    </g>
    <g id="text_17">
     <!-- Limnephilus lunatus -->
     <g transform="translate(350.2288 231.524125) scale(0.1 -0.1)">
      <use xlink:href="#DejaVuSans-4c"/>
      <use xlink:href="#DejaVuSans-69" x="55.712891"/>
      <use xlink:href="#DejaVuSans-6d" x="83.496094"/>
      <use xlink:href="#DejaVuSans-6e" x="180.908203"/>
      <use xlink:href="#DejaVuSans-65" x="244.287109"/>
      <use xlink:href="#DejaVuSans-70" x="305.810547"/>
      <use xlink:href="#DejaVuSans-68" x="369.287109"/>
      <use xlink:href="#DejaVuSans-69" x="432.666016"/>
      <use xlink:href="#DejaVuSans-6c" x="460.449219"/>
      <use xlink:href="#DejaVuSans-75" x="488.232422"/>
      <use xlink:href="#DejaVuSans-73" x="551.611328"/>
      <use xlink:href="#DejaVuSans-20" x="603.710938"/>
      <use xlink:href="#DejaVuSans-6c" x="635.498047"/>
      <use xlink:href="#DejaVuSans-75" x="663.28125"/>
      <use xlink:href="#DejaVuSans-6e" x="726.660156"/>
      <use xlink:href="#DejaVuSans-61" x="790.039062"/>
      <use xlink:href="#DejaVuSans-74" x="851.318359"/>
      <use xlink:href="#DejaVuSans-75" x="890.527344"/>
      <use xlink:href="#DejaVuSans-73" x="953.90625"/>
     </g>
    </g>
    <g id="patch_32">
     <path d="M 322.2288 246.20225 
L 342.2288 246.20225 
L 342.2288 239.20225 
L 322.2288 239.20225 
z
" style="fill: #428a69"/>
    </g>
    <g id="text_18">
     <!-- Mystacides azureus -->
     <g transform="translate(350.2288 246.20225) scale(0.1 -0.1)">
      <defs>
       <path id="DejaVuSans-4d" d="M 628 4666 
L 1569 4666 
L 2759 1491 
L 3956 4666 
L 4897 4666 
L 4897 0 
L 4281 0 
L 4281 4097 
L 3078 897 
L 2444 897 
L 1241 4097 
L 1241 0 
L 628 0 
L 628 4666 
z
" transform="scale(0.015625)"/>
       <path id="DejaVuSans-7a" d="M 353 3500 
L 3084 3500 
L 3084 2975 
L 922 459 
L 3084 459 
L 3084 0 
L 275 0 
L 275 525 
L 2438 3041 
L 353 3041 
L 353 3500 
z
" transform="scale(0.015625)"/>
      </defs>
      <use xlink:href="#DejaVuSans-4d"/>
      <use xlink:href="#DejaVuSans-79" x="86.279297"/>
      <use xlink:href="#DejaVuSans-73" x="145.458984"/>
      <use xlink:href="#DejaVuSans-74" x="197.558594"/>
      <use xlink:href="#DejaVuSans-61" x="236.767578"/>
      <use xlink:href="#DejaVuSans-63" x="298.046875"/>
      <use xlink:href="#DejaVuSans-69" x="353.027344"/>
      <use xlink:href="#DejaVuSans-64" x="380.810547"/>
      <use xlink:href="#DejaVuSans-65" x="444.287109"/>
      <use xlink:href="#DejaVuSans-73" x="505.810547"/>
      <use xlink:href="#DejaVuSans-20" x="557.910156"/>
      <use xlink:href="#DejaVuSans-61" x="589.697266"/>
      <use xlink:href="#DejaVuSans-7a" x="650.976562"/>
      <use xlink:href="#DejaVuSans-75" x="703.466797"/>
      <use xlink:href="#DejaVuSans-72" x="766.845703"/>
      <use xlink:href="#DejaVuSans-65" x="805.708984"/>
      <use xlink:href="#DejaVuSans-75" x="867.232422"/>
      <use xlink:href="#DejaVuSans-73" x="930.611328"/>
     </g>
    </g>
    <g id="patch_33">
     <path d="M 322.2288 260.880375 
L 342.2288 260.880375 
L 342.2288 253.880375 
L 322.2288 253.880375 
z
" style="fill: #398068"/>
    </g>
    <g id="text_19">
     <!-- Potamophylax rotundipennis -->
     <g transform="translate(350.2288 260.880375) scale(0.1 -0.1)">
      <use xlink:href="#DejaVuSans-50"/>
      <use xlink:href="#DejaVuSans-6f" x="56.677734"/>
      <use xlink:href="#DejaVuSans-74" x="117.859375"/>
      <use xlink:href="#DejaVuSans-61" x="157.068359"/>
      <use xlink:href="#DejaVuSans-6d" x="218.347656"/>
      <use xlink:href="#DejaVuSans-6f" x="315.759766"/>
      <use xlink:href="#DejaVuSans-70" x="376.941406"/>
      <use xlink:href="#DejaVuSans-68" x="440.417969"/>
      <use xlink:href="#DejaVuSans-79" x="503.796875"/>
      <use xlink:href="#DejaVuSans-6c" x="562.976562"/>
      <use xlink:href="#DejaVuSans-61" x="590.759766"/>
      <use xlink:href="#DejaVuSans-78" x="652.039062"/>
      <use xlink:href="#DejaVuSans-20" x="711.21875"/>
      <use xlink:href="#DejaVuSans-72" x="743.005859"/>
      <use xlink:href="#DejaVuSans-6f" x="781.869141"/>
      <use xlink:href="#DejaVuSans-74" x="843.050781"/>
      <use xlink:href="#DejaVuSans-75" x="882.259766"/>
      <use xlink:href="#DejaVuSans-6e" x="945.638672"/>
      <use xlink:href="#DejaVuSans-64" x="1009.017578"/>
      <use xlink:href="#DejaVuSans-69" x="1072.494141"/>
      <use xlink:href="#DejaVuSans-70" x="1100.277344"/>
      <use xlink:href="#DejaVuSans-65" x="1163.753906"/>
      <use xlink:href="#DejaVuSans-6e" x="1225.277344"/>
      <use xlink:href="#DejaVuSans-6e" x="1288.65625"/>
      <use xlink:href="#DejaVuSans-69" x="1352.035156"/>
      <use xlink:href="#DejaVuSans-73" x="1379.818359"/>
     </g>
    </g>
   </g>
  </g>
 </g>
</svg>
