<?xml version="1.0" encoding="utf-8" standalone="no"?>
<!DOCTYPE svg PUBLIC "-//W3C//DTD SVG 1.1//EN"
  "http://www.w3.org/Graphics/SVG/1.1/DTD/svg11.dtd">
<svg xmlns:xlink="http://www.w3.org/1999/xlink" width="536.85pt" height="144pt" viewBox="0 0 536.85 144" xmlns="http://www.w3.org/2000/svg" version="1.1">
 <metadata>
  <rdf:RDF xmlns:dc="http://purl.org/dc/elements/1.1/" xmlns:cc="http://creativecommons.org/ns#" xmlns:rdf="http://www.w3.org/1999/02/22-rdf-syntax-ns#">
   <cc:Work>
    <dc:type rdf:resource="http://purl.org/dc/dcmitype/StillImage"/>
    <dc:date>2025-04-11T11:49:20.226700</dc:date>
    <dc:format>image/svg+xml</dc:format>
    <dc:creator>
     <cc:Agent>
      <dc:title>Matplotlib v3.8.0, https://matplotlib.org/</dc:title>
     </cc:Agent>
    </dc:creator>
   </cc:Work>
  </rdf:RDF>
 </metadata>
 <defs>
  <style type="text/css">*{stroke-linejoin: round; stroke-linecap: butt}</style>
 </defs>
 <g id="figure_1">
  <g id="patch_1">
   <path d="M 0 144 
L 536.85 144 
L 536.85 0 
L 0 0 
z
" style="fill: #ffffff"/>
  </g>
  <g id="axes_1">
   <g id="patch_2">
    <path d="M 50.2625 97.874125 
L 415.8315 97.874125 
L 415.8315 10.8 
L 50.2625 10.8 
z
" style="fill: #ffffff"/>
   </g>
   <g id="PolyCollection_1">
    <defs>
     <path id="m56353d82dc" d="M 151.18324 -46.139925 
L 151.18324 -46.125875 
L 151.702606 -46.125875 
L 152.221973 -46.125875 
L 152.74134 -46.125875 
L 153.260706 -46.125875 
L 153.780073 -46.125875 
L 154.299439 -46.125875 
L 154.818806 -46.125875 
L 155.338172 -46.125875 
L 155.857539 -46.125875 
L 156.376905 -46.125875 
L 156.896272 -46.125875 
L 157.415638 -46.125875 
L 157.935005 -46.125875 
L 158.454372 -46.125875 
L 158.973738 -46.125875 
L 159.493105 -46.125875 
L 160.012471 -46.125875 
L 160.531838 -46.125875 
L 161.051204 -46.125875 
L 161.570571 -46.125875 
L 162.089937 -46.125875 
L 162.609304 -46.125875 
L 163.12867 -46.125875 
L 163.648037 -46.125875 
L 164.167404 -46.125875 
L 164.68677 -46.125875 
L 165.206137 -46.125875 
L 165.725503 -46.125875 
L 166.24487 -46.125875 
L 166.764236 -46.125875 
L 167.283603 -46.125875 
L 167.802969 -46.125875 
L 168.322336 -46.125875 
L 168.841702 -46.125875 
L 169.361069 -46.125875 
L 169.880436 -46.125875 
L 170.399802 -46.125875 
L 170.919169 -46.125875 
L 171.438535 -46.125875 
L 171.957902 -46.125875 
L 172.477268 -46.125875 
L 172.996635 -46.125875 
L 173.516001 -46.125875 
L 174.035368 -46.125875 
L 174.554734 -46.125875 
L 175.074101 -46.125875 
L 175.593468 -46.125875 
L 176.112834 -46.125875 
L 176.632201 -46.125875 
L 177.151567 -46.125875 
L 177.670934 -46.125875 
L 178.1903 -46.125875 
L 178.709667 -46.125875 
L 179.229033 -46.125875 
L 179.7484 -46.125875 
L 180.267766 -46.125875 
L 180.787133 -46.125875 
L 181.3065 -46.125875 
L 181.825866 -46.125875 
L 182.345233 -46.125875 
L 182.864599 -46.125875 
L 183.383966 -46.125875 
L 183.903332 -46.125875 
L 184.422699 -46.125875 
L 184.942065 -46.125875 
L 185.461432 -46.125875 
L 185.980798 -46.125875 
L 186.500165 -46.125875 
L 187.019532 -46.125875 
L 187.538898 -46.125875 
L 188.058265 -46.125875 
L 188.577631 -46.125875 
L 189.096998 -46.125875 
L 189.616364 -46.125875 
L 190.135731 -46.125875 
L 190.655097 -46.125875 
L 191.174464 -46.125875 
L 191.69383 -46.125875 
L 192.213197 -46.125875 
L 192.732564 -46.125875 
L 193.25193 -46.125875 
L 193.771297 -46.125875 
L 194.290663 -46.125875 
L 194.81003 -46.125875 
L 195.329396 -46.125875 
L 195.848763 -46.125875 
L 196.368129 -46.125875 
L 196.887496 -46.125875 
L 197.406862 -46.125875 
L 197.926229 -46.125875 
L 198.445596 -46.125875 
L 198.964962 -46.125875 
L 199.484329 -46.125875 
L 200.003695 -46.125875 
L 200.523062 -46.125875 
L 201.042428 -46.125875 
L 201.561795 -46.125875 
L 202.081161 -46.125875 
L 202.600528 -46.125875 
L 203.119894 -46.125875 
L 203.639261 -46.125875 
L 204.158627 -46.125875 
L 204.677994 -46.125875 
L 205.197361 -46.125875 
L 205.716727 -46.125875 
L 206.236094 -46.125875 
L 206.75546 -46.125875 
L 207.274827 -46.125875 
L 207.794193 -46.125875 
L 208.31356 -46.125875 
L 208.832926 -46.125875 
L 209.352293 -46.125875 
L 209.871659 -46.125875 
L 210.391026 -46.125875 
L 210.910393 -46.125875 
L 211.429759 -46.125875 
L 211.949126 -46.125875 
L 212.468492 -46.125875 
L 212.987859 -46.125875 
L 213.507225 -46.125875 
L 214.026592 -46.125875 
L 214.545958 -46.125875 
L 215.065325 -46.125875 
L 215.584691 -46.125875 
L 216.104058 -46.125875 
L 216.623425 -46.125875 
L 217.142791 -46.125875 
L 217.662158 -46.125875 
L 218.181524 -46.125875 
L 218.700891 -46.125875 
L 219.220257 -46.125875 
L 219.739624 -46.125875 
L 220.25899 -46.125875 
L 220.778357 -46.125875 
L 221.297723 -46.125875 
L 221.81709 -46.125875 
L 222.336457 -46.125875 
L 222.855823 -46.125875 
L 223.37519 -46.125875 
L 223.894556 -46.125875 
L 224.413923 -46.125875 
L 224.933289 -46.125875 
L 225.452656 -46.125875 
L 225.972022 -46.125875 
L 226.491389 -46.125875 
L 227.010755 -46.125875 
L 227.530122 -46.125875 
L 228.049489 -46.125875 
L 228.568855 -46.125875 
L 229.088222 -46.125875 
L 229.607588 -46.125875 
L 230.126955 -46.125875 
L 230.646321 -46.125875 
L 231.165688 -46.125875 
L 231.685054 -46.125875 
L 232.204421 -46.125875 
L 232.723787 -46.125875 
L 233.243154 -46.125875 
L 233.762521 -46.125875 
L 234.281887 -46.125875 
L 234.801254 -46.125875 
L 235.32062 -46.125875 
L 235.839987 -46.125875 
L 236.359353 -46.125875 
L 236.87872 -46.125875 
L 237.398086 -46.125875 
L 237.917453 -46.125875 
L 238.436819 -46.125875 
L 238.956186 -46.125875 
L 239.475553 -46.125875 
L 239.994919 -46.125875 
L 240.514286 -46.125875 
L 241.033652 -46.125875 
L 241.553019 -46.125875 
L 242.072385 -46.125875 
L 242.591752 -46.125875 
L 243.111118 -46.125875 
L 243.630485 -46.125875 
L 244.149851 -46.125875 
L 244.669218 -46.125875 
L 245.188585 -46.125875 
L 245.707951 -46.125875 
L 246.227318 -46.125875 
L 246.746684 -46.125875 
L 247.266051 -46.125875 
L 247.785417 -46.125875 
L 248.304784 -46.125875 
L 248.82415 -46.125875 
L 249.343517 -46.125875 
L 249.862883 -46.125875 
L 250.38225 -46.125875 
L 250.901617 -46.125875 
L 251.420983 -46.125875 
L 251.94035 -46.125875 
L 252.459716 -46.125875 
L 252.979083 -46.125875 
L 253.498449 -46.125875 
L 254.017816 -46.125875 
L 254.537182 -46.125875 
L 254.537182 -46.139925 
L 254.537182 -46.139925 
L 254.017816 -46.15095 
L 253.498449 -46.168878 
L 252.979083 -46.196739 
L 252.459716 -46.238084 
L 251.94035 -46.2966 
L 251.420983 -46.375473 
L 250.901617 -46.476512 
L 250.38225 -46.599185 
L 249.862883 -46.739786 
L 249.343517 -46.89101 
L 248.82415 -47.042186 
L 248.304784 -47.180309 
L 247.785417 -47.291795 
L 247.266051 -47.364643 
L 246.746684 -47.390565 
L 246.227318 -47.366531 
L 245.707951 -47.29536 
L 245.188585 -47.185177 
L 244.669218 -47.047902 
L 244.149851 -46.897156 
L 243.630485 -46.746108 
L 243.111118 -46.605742 
L 242.591752 -46.483863 
L 242.072385 -46.384924 
L 241.553019 -46.310552 
L 241.033652 -46.260505 
L 240.514286 -46.233765 
L 239.994919 -46.229461 
L 239.475553 -46.247455 
L 238.956186 -46.288451 
L 238.436819 -46.353627 
L 237.917453 -46.443876 
L 237.398086 -46.558816 
L 236.87872 -46.695846 
L 236.359353 -46.849537 
L 235.839987 -47.011639 
L 235.32062 -47.17187 
L 234.801254 -47.319421 
L 234.281887 -47.444893 
L 233.762521 -47.542157 
L 233.243154 -47.609569 
L 232.723787 -47.650105 
L 232.204421 -47.670253 
L 231.685054 -47.677921 
L 231.165688 -47.67995 
L 230.646321 -47.679977 
L 230.126955 -47.67736 
L 229.607588 -47.667506 
L 229.088222 -47.64353 
L 228.568855 -47.598752 
L 228.049489 -47.529291 
L 227.530122 -47.436 
L 227.010755 -47.325224 
L 226.491389 -47.208246 
L 225.972022 -47.099595 
L 225.452656 -47.014703 
L 224.933289 -46.967442 
L 224.413923 -46.968054 
L 223.894556 -47.021798 
L 223.37519 -47.128499 
L 222.855823 -47.283004 
L 222.336457 -47.476423 
L 221.81709 -47.697918 
L 221.297723 -47.936734 
L 220.778357 -48.184089 
L 220.25899 -48.434564 
L 219.739624 -48.68673 
L 219.220257 -48.942883 
L 218.700891 -49.207992 
L 218.181524 -49.488082 
L 217.662158 -49.788433 
L 217.142791 -50.111917 
L 216.623425 -50.457761 
L 216.104058 -50.820848 
L 215.584691 -51.191593 
L 215.065325 -51.556351 
L 214.545958 -51.898322 
L 214.026592 -52.19897 
L 213.507225 -52.439947 
L 212.987859 -52.605471 
L 212.468492 -52.684899 
L 211.949126 -52.675031 
L 211.429759 -52.581516 
L 210.910393 -52.418759 
L 210.391026 -52.207976 
L 209.871659 -51.973549 
L 209.352293 -51.738333 
L 208.832926 -51.519016 
L 208.31356 -51.322729 
L 207.794193 -51.145882 
L 207.274827 -50.975617 
L 206.75546 -50.793593 
L 206.236094 -50.581147 
L 205.716727 -50.324551 
L 205.197361 -50.019041 
L 204.677994 -49.670675 
L 204.158627 -49.295648 
L 203.639261 -48.917335 
L 203.119894 -48.561877 
L 202.600528 -48.253374 
L 202.081161 -48.0098 
L 201.561795 -47.840478 
L 201.042428 -47.745538 
L 200.523062 -47.717307 
L 200.003695 -47.743127 
L 199.484329 -47.808776 
L 198.964962 -47.901551 
L 198.445596 -48.012195 
L 197.926229 -48.135201 
L 197.406862 -48.267506 
L 196.887496 -48.40614 
L 196.368129 -48.545721 
L 195.848763 -48.676796 
L 195.329396 -48.785774 
L 194.81003 -48.856674 
L 194.290663 -48.874312 
L 193.771297 -48.828037 
L 193.25193 -48.714922 
L 192.732564 -48.541452 
L 192.213197 -48.323187 
L 191.69383 -48.08243 
L 191.174464 -47.844482 
L 190.655097 -47.633318 
L 190.135731 -47.467624 
L 189.616364 -47.357946 
L 189.096998 -47.305395 
L 188.577631 -47.302021 
L 188.058265 -47.332695 
L 187.538898 -47.378074 
L 187.019532 -47.418082 
L 186.500165 -47.435295 
L 185.980798 -47.417607 
L 185.461432 -47.359746 
L 184.942065 -47.263414 
L 184.422699 -47.136152 
L 183.903332 -46.989288 
L 183.383966 -46.835499 
L 182.864599 -46.686556 
L 182.345233 -46.551662 
L 181.825866 -46.436623 
L 181.3065 -46.343813 
L 180.787133 -46.272752 
L 180.267766 -46.220992 
L 179.7484 -46.185064 
L 179.229033 -46.161267 
L 178.709667 -46.14621 
L 178.1903 -46.137101 
L 177.670934 -46.131831 
L 177.151567 -46.128911 
L 176.632201 -46.127362 
L 176.112834 -46.126575 
L 175.593468 -46.126191 
L 175.074101 -46.126013 
L 174.554734 -46.125932 
L 174.035368 -46.125898 
L 173.516001 -46.125884 
L 172.996635 -46.125879 
L 172.477268 -46.125878 
L 171.957902 -46.12588 
L 171.438535 -46.125888 
L 170.919169 -46.125909 
L 170.399802 -46.125957 
L 169.880436 -46.126069 
L 169.361069 -46.126315 
L 168.841702 -46.126831 
L 168.322336 -46.127874 
L 167.802969 -46.12989 
L 167.283603 -46.133625 
L 166.764236 -46.140248 
L 166.24487 -46.151488 
L 165.725503 -46.169734 
L 165.206137 -46.198041 
L 164.68677 -46.239971 
L 164.167404 -46.29921 
L 163.648037 -46.378904 
L 163.12867 -46.480792 
L 162.609304 -46.604237 
L 162.089937 -46.745399 
L 161.570571 -46.896835 
L 161.051204 -47.047762 
L 160.531838 -47.185119 
L 160.012471 -47.295337 
L 159.493105 -47.366522 
L 158.973738 -47.390562 
L 158.454372 -47.364642 
L 157.935005 -47.291794 
L 157.415638 -47.180309 
L 156.896272 -47.042186 
L 156.376905 -46.89101 
L 155.857539 -46.739786 
L 155.338172 -46.599185 
L 154.818806 -46.476512 
L 154.299439 -46.375473 
L 153.780073 -46.2966 
L 153.260706 -46.238084 
L 152.74134 -46.196739 
L 152.221973 -46.168878 
L 151.702606 -46.15095 
L 151.18324 -46.139925 
z
" style="stroke: #a4cb73"/>
    </defs>
    <g clip-path="url(#p978942ba01)">
     <use xlink:href="#m56353d82dc" x="0" y="144" style="fill: #a4cb73; fill-opacity: 0.1; stroke: #a4cb73"/>
    </g>
   </g>
   <g id="PolyCollection_2">
    <defs>
     <path id="mef9c4061b9" d="M 93.777682 -46.150989 
L 93.777682 -46.125875 
L 94.944339 -46.125875 
L 96.110995 -46.125875 
L 97.277652 -46.125875 
L 98.444308 -46.125875 
L 99.610965 -46.125875 
L 100.777621 -46.125875 
L 101.944278 -46.125875 
L 103.110934 -46.125875 
L 104.27759 -46.125875 
L 105.444247 -46.125875 
L 106.610903 -46.125875 
L 107.77756 -46.125875 
L 108.944216 -46.125875 
L 110.110873 -46.125875 
L 111.277529 -46.125875 
L 112.444186 -46.125875 
L 113.610842 -46.125875 
L 114.777499 -46.125875 
L 115.944155 -46.125875 
L 117.110811 -46.125875 
L 118.277468 -46.125875 
L 119.444124 -46.125875 
L 120.610781 -46.125875 
L 121.777437 -46.125875 
L 122.944094 -46.125875 
L 124.11075 -46.125875 
L 125.277407 -46.125875 
L 126.444063 -46.125875 
L 127.61072 -46.125875 
L 128.777376 -46.125875 
L 129.944032 -46.125875 
L 131.110689 -46.125875 
L 132.277345 -46.125875 
L 133.444002 -46.125875 
L 134.610658 -46.125875 
L 135.777315 -46.125875 
L 136.943971 -46.125875 
L 138.110628 -46.125875 
L 139.277284 -46.125875 
L 140.443941 -46.125875 
L 141.610597 -46.125875 
L 142.777254 -46.125875 
L 143.94391 -46.125875 
L 145.110566 -46.125875 
L 146.277223 -46.125875 
L 147.443879 -46.125875 
L 148.610536 -46.125875 
L 149.777192 -46.125875 
L 150.943849 -46.125875 
L 152.110505 -46.125875 
L 153.277162 -46.125875 
L 154.443818 -46.125875 
L 155.610475 -46.125875 
L 156.777131 -46.125875 
L 157.943787 -46.125875 
L 159.110444 -46.125875 
L 160.2771 -46.125875 
L 161.443757 -46.125875 
L 162.610413 -46.125875 
L 163.77707 -46.125875 
L 164.943726 -46.125875 
L 166.110383 -46.125875 
L 167.277039 -46.125875 
L 168.443696 -46.125875 
L 169.610352 -46.125875 
L 170.777009 -46.125875 
L 171.943665 -46.125875 
L 173.110321 -46.125875 
L 174.276978 -46.125875 
L 175.443634 -46.125875 
L 176.610291 -46.125875 
L 177.776947 -46.125875 
L 178.943604 -46.125875 
L 180.11026 -46.125875 
L 181.276917 -46.125875 
L 182.443573 -46.125875 
L 183.61023 -46.125875 
L 184.776886 -46.125875 
L 185.943542 -46.125875 
L 187.110199 -46.125875 
L 188.276855 -46.125875 
L 189.443512 -46.125875 
L 190.610168 -46.125875 
L 191.776825 -46.125875 
L 192.943481 -46.125875 
L 194.110138 -46.125875 
L 195.276794 -46.125875 
L 196.443451 -46.125875 
L 197.610107 -46.125875 
L 198.776763 -46.125875 
L 199.94342 -46.125875 
L 201.110076 -46.125875 
L 202.276733 -46.125875 
L 203.443389 -46.125875 
L 204.610046 -46.125875 
L 205.776702 -46.125875 
L 206.943359 -46.125875 
L 208.110015 -46.125875 
L 209.276672 -46.125875 
L 210.443328 -46.125875 
L 211.609985 -46.125875 
L 212.776641 -46.125875 
L 213.943297 -46.125875 
L 215.109954 -46.125875 
L 216.27661 -46.125875 
L 217.443267 -46.125875 
L 218.609923 -46.125875 
L 219.77658 -46.125875 
L 220.943236 -46.125875 
L 222.109893 -46.125875 
L 223.276549 -46.125875 
L 224.443206 -46.125875 
L 225.609862 -46.125875 
L 226.776518 -46.125875 
L 227.943175 -46.125875 
L 229.109831 -46.125875 
L 230.276488 -46.125875 
L 231.443144 -46.125875 
L 232.609801 -46.125875 
L 233.776457 -46.125875 
L 234.943114 -46.125875 
L 236.10977 -46.125875 
L 237.276427 -46.125875 
L 238.443083 -46.125875 
L 239.60974 -46.125875 
L 240.776396 -46.125875 
L 241.943052 -46.125875 
L 243.109709 -46.125875 
L 244.276365 -46.125875 
L 245.443022 -46.125875 
L 246.609678 -46.125875 
L 247.776335 -46.125875 
L 248.942991 -46.125875 
L 250.109648 -46.125875 
L 251.276304 -46.125875 
L 252.442961 -46.125875 
L 253.609617 -46.125875 
L 254.776273 -46.125875 
L 255.94293 -46.125875 
L 257.109586 -46.125875 
L 258.276243 -46.125875 
L 259.442899 -46.125875 
L 260.609556 -46.125875 
L 261.776212 -46.125875 
L 262.942869 -46.125875 
L 264.109525 -46.125875 
L 265.276182 -46.125875 
L 266.442838 -46.125875 
L 267.609494 -46.125875 
L 268.776151 -46.125875 
L 269.942807 -46.125875 
L 271.109464 -46.125875 
L 272.27612 -46.125875 
L 273.442777 -46.125875 
L 274.609433 -46.125875 
L 275.77609 -46.125875 
L 276.942746 -46.125875 
L 278.109403 -46.125875 
L 279.276059 -46.125875 
L 280.442716 -46.125875 
L 281.609372 -46.125875 
L 282.776028 -46.125875 
L 283.942685 -46.125875 
L 285.109341 -46.125875 
L 286.275998 -46.125875 
L 287.442654 -46.125875 
L 288.609311 -46.125875 
L 289.775967 -46.125875 
L 290.942624 -46.125875 
L 292.10928 -46.125875 
L 293.275937 -46.125875 
L 294.442593 -46.125875 
L 295.609249 -46.125875 
L 296.775906 -46.125875 
L 297.942562 -46.125875 
L 299.109219 -46.125875 
L 300.275875 -46.125875 
L 301.442532 -46.125875 
L 302.609188 -46.125875 
L 303.775845 -46.125875 
L 304.942501 -46.125875 
L 306.109158 -46.125875 
L 307.275814 -46.125875 
L 308.442471 -46.125875 
L 309.609127 -46.125875 
L 310.775783 -46.125875 
L 311.94244 -46.125875 
L 313.109096 -46.125875 
L 314.275753 -46.125875 
L 315.442409 -46.125875 
L 316.609066 -46.125875 
L 317.775722 -46.125875 
L 318.942379 -46.125875 
L 320.109035 -46.125875 
L 321.275692 -46.125875 
L 322.442348 -46.125875 
L 323.609004 -46.125875 
L 324.775661 -46.125875 
L 325.942317 -46.125875 
L 325.942317 -46.138432 
L 325.942317 -46.138432 
L 324.775661 -46.164463 
L 323.609004 -46.226841 
L 322.442348 -46.350808 
L 321.275692 -46.552542 
L 320.109035 -46.814973 
L 318.942379 -47.073485 
L 317.775722 -47.235393 
L 316.609066 -47.231978 
L 315.442409 -47.064762 
L 314.275753 -46.804437 
L 313.109096 -46.543459 
L 311.94244 -46.344804 
L 310.775783 -46.224248 
L 309.609127 -46.166345 
L 308.442471 -46.15064 
L 307.275814 -46.170324 
L 306.109158 -46.240307 
L 304.942501 -46.395614 
L 303.775845 -46.675729 
L 302.609188 -47.091571 
L 301.442532 -47.589031 
L 300.275875 -48.043168 
L 299.109219 -48.309348 
L 297.942562 -48.310911 
L 296.775906 -48.096639 
L 295.609249 -47.812075 
L 294.442593 -47.600085 
L 293.275937 -47.512632 
L 292.10928 -47.510193 
L 290.942624 -47.548923 
L 289.775967 -47.677107 
L 288.609311 -48.051604 
L 287.442654 -48.848418 
L 286.275998 -50.121541 
L 285.109341 -51.700689 
L 283.942685 -53.19973 
L 282.776028 -54.156341 
L 281.609372 -54.255658 
L 280.442716 -53.520726 
L 279.276059 -52.332055 
L 278.109403 -51.229543 
L 276.942746 -50.615081 
L 275.77609 -50.560276 
L 274.609433 -50.833693 
L 273.442777 -51.089109 
L 272.27612 -51.069817 
L 271.109464 -50.724881 
L 269.942807 -50.209926 
L 268.776151 -49.79191 
L 267.609494 -49.711344 
L 266.442838 -50.079165 
L 265.276182 -50.854701 
L 264.109525 -51.87801 
L 262.942869 -52.906367 
L 261.776212 -53.659874 
L 260.609556 -53.913544 
L 259.442899 -53.61329 
L 258.276243 -52.930089 
L 257.109586 -52.203664 
L 255.94293 -51.812377 
L 254.776273 -52.031076 
L 253.609617 -52.913728 
L 252.442961 -54.24142 
L 251.276304 -55.594795 
L 250.109648 -56.556104 
L 248.942991 -56.931411 
L 247.776335 -56.846223 
L 246.609678 -56.670324 
L 245.443022 -56.841605 
L 244.276365 -57.666588 
L 243.109709 -59.153927 
L 241.943052 -60.975627 
L 240.776396 -62.637687 
L 239.60974 -63.7716 
L 238.443083 -64.306355 
L 237.276427 -64.385943 
L 236.10977 -64.159147 
L 234.943114 -63.665176 
L 233.776457 -62.892115 
L 232.609801 -61.915865 
L 231.443144 -60.98833 
L 230.276488 -60.488462 
L 229.109831 -60.733498 
L 227.943175 -61.774267 
L 226.776518 -63.365368 
L 225.609862 -65.166213 
L 224.443206 -66.985448 
L 223.276549 -68.82837 
L 222.109893 -70.735121 
L 220.943236 -72.613104 
L 219.77658 -74.209184 
L 218.609923 -75.186163 
L 217.443267 -75.237331 
L 216.27661 -74.238134 
L 215.109954 -72.381023 
L 213.943297 -70.140399 
L 212.776641 -68.013747 
L 211.609985 -66.22786 
L 210.443328 -64.662813 
L 209.276672 -63.037175 
L 208.110015 -61.176402 
L 206.943359 -59.168931 
L 205.776702 -57.337053 
L 204.610046 -56.061036 
L 203.443389 -55.553448 
L 202.276733 -55.706346 
L 201.110076 -56.114003 
L 199.94342 -56.280773 
L 198.776763 -55.891759 
L 197.610107 -54.961059 
L 196.443451 -53.759394 
L 195.276794 -52.600323 
L 194.110138 -51.665107 
L 192.943481 -50.975576 
L 191.776825 -50.471085 
L 190.610168 -50.07937 
L 189.443512 -49.736681 
L 188.276855 -49.391952 
L 187.110199 -49.021592 
L 185.943542 -48.635309 
L 184.776886 -48.260243 
L 183.61023 -47.927239 
L 182.443573 -47.673479 
L 181.276917 -47.537595 
L 180.11026 -47.531285 
L 178.943604 -47.617115 
L 177.776947 -47.726374 
L 176.610291 -47.800066 
L 175.443634 -47.807558 
L 174.276978 -47.735272 
L 173.110321 -47.581904 
L 171.943665 -47.378393 
L 170.777009 -47.200668 
L 169.610352 -47.140373 
L 168.443696 -47.249643 
L 167.277039 -47.511094 
L 166.110383 -47.858427 
L 164.943726 -48.21816 
L 163.77707 -48.525106 
L 162.610413 -48.707389 
L 161.443757 -48.686061 
L 160.2771 -48.41811 
L 159.110444 -47.945578 
L 157.943787 -47.390158 
L 156.777131 -46.888184 
L 155.610475 -46.522708 
L 154.443818 -46.3037 
L 153.277162 -46.194597 
L 152.110505 -46.149998 
L 150.943849 -46.138431 
L 149.777192 -46.148228 
L 148.610536 -46.18585 
L 147.443879 -46.271537 
L 146.277223 -46.428474 
L 145.110566 -46.661288 
L 143.94391 -46.932512 
L 142.777254 -47.160598 
L 141.610597 -47.256 
L 140.443941 -47.176833 
L 139.277284 -46.958023 
L 138.110628 -46.686887 
L 136.943971 -46.447908 
L 135.777315 -46.283268 
L 134.610658 -46.191372 
L 133.444002 -46.149082 
L 132.277345 -46.132876 
L 131.110689 -46.127673 
L 129.944032 -46.126268 
L 128.777376 -46.125948 
L 127.61072 -46.125887 
L 126.444063 -46.125877 
L 125.277407 -46.125875 
L 124.11075 -46.125875 
L 122.944094 -46.125875 
L 121.777437 -46.125875 
L 120.610781 -46.125875 
L 119.444124 -46.125875 
L 118.277468 -46.125876 
L 117.110811 -46.125883 
L 115.944155 -46.125928 
L 114.777499 -46.126184 
L 113.610842 -46.127423 
L 112.444186 -46.132478 
L 111.277529 -46.149854 
L 110.110873 -46.200019 
L 108.944216 -46.321074 
L 107.77756 -46.563431 
L 106.610903 -46.960992 
L 105.444247 -47.482992 
L 104.27759 -48.003649 
L 103.110934 -48.338082 
L 101.944278 -48.344912 
L 100.777621 -48.021095 
L 99.610965 -47.504071 
L 98.444308 -46.979209 
L 97.277652 -46.575741 
L 96.110995 -46.327806 
L 94.944339 -46.203051 
L 93.777682 -46.150989 
z
" style="stroke: #4397b0"/>
    </defs>
    <g clip-path="url(#p978942ba01)">
     <use xlink:href="#mef9c4061b9" x="0" y="144" style="fill: #4397b0; fill-opacity: 0.1; stroke: #4397b0"/>
    </g>
   </g>
   <g id="PolyCollection_3">
    <defs>
     <path id="m6e111f44a7" d="M 66.879273 -46.13453 
L 66.879273 -46.125875 
L 68.5493 -46.125875 
L 70.219328 -46.125875 
L 71.889355 -46.125875 
L 73.559382 -46.125875 
L 75.22941 -46.125875 
L 76.899437 -46.125875 
L 78.569465 -46.125875 
L 80.239492 -46.125875 
L 81.909519 -46.125875 
L 83.579547 -46.125875 
L 85.249574 -46.125875 
L 86.919602 -46.125875 
L 88.589629 -46.125875 
L 90.259656 -46.125875 
L 91.929684 -46.125875 
L 93.599711 -46.125875 
L 95.269739 -46.125875 
L 96.939766 -46.125875 
L 98.609794 -46.125875 
L 100.279821 -46.125875 
L 101.949848 -46.125875 
L 103.619876 -46.125875 
L 105.289903 -46.125875 
L 106.959931 -46.125875 
L 108.629958 -46.125875 
L 110.299985 -46.125875 
L 111.970013 -46.125875 
L 113.64004 -46.125875 
L 115.310068 -46.125875 
L 116.980095 -46.125875 
L 118.650122 -46.125875 
L 120.32015 -46.125875 
L 121.990177 -46.125875 
L 123.660205 -46.125875 
L 125.330232 -46.125875 
L 127.000259 -46.125875 
L 128.670287 -46.125875 
L 130.340314 -46.125875 
L 132.010342 -46.125875 
L 133.680369 -46.125875 
L 135.350397 -46.125875 
L 137.020424 -46.125875 
L 138.690451 -46.125875 
L 140.360479 -46.125875 
L 142.030506 -46.125875 
L 143.700534 -46.125875 
L 145.370561 -46.125875 
L 147.040588 -46.125875 
L 148.710616 -46.125875 
L 150.380643 -46.125875 
L 152.050671 -46.125875 
L 153.720698 -46.125875 
L 155.390725 -46.125875 
L 157.060753 -46.125875 
L 158.73078 -46.125875 
L 160.400808 -46.125875 
L 162.070835 -46.125875 
L 163.740862 -46.125875 
L 165.41089 -46.125875 
L 167.080917 -46.125875 
L 168.750945 -46.125875 
L 170.420972 -46.125875 
L 172.091 -46.125875 
L 173.761027 -46.125875 
L 175.431054 -46.125875 
L 177.101082 -46.125875 
L 178.771109 -46.125875 
L 180.441137 -46.125875 
L 182.111164 -46.125875 
L 183.781191 -46.125875 
L 185.451219 -46.125875 
L 187.121246 -46.125875 
L 188.791274 -46.125875 
L 190.461301 -46.125875 
L 192.131328 -46.125875 
L 193.801356 -46.125875 
L 195.471383 -46.125875 
L 197.141411 -46.125875 
L 198.811438 -46.125875 
L 200.481466 -46.125875 
L 202.151493 -46.125875 
L 203.82152 -46.125875 
L 205.491548 -46.125875 
L 207.161575 -46.125875 
L 208.831603 -46.125875 
L 210.50163 -46.125875 
L 212.171657 -46.125875 
L 213.841685 -46.125875 
L 215.511712 -46.125875 
L 217.18174 -46.125875 
L 218.851767 -46.125875 
L 220.521794 -46.125875 
L 222.191822 -46.125875 
L 223.861849 -46.125875 
L 225.531877 -46.125875 
L 227.201904 -46.125875 
L 228.871931 -46.125875 
L 230.541959 -46.125875 
L 232.211986 -46.125875 
L 233.882014 -46.125875 
L 235.552041 -46.125875 
L 237.222069 -46.125875 
L 238.892096 -46.125875 
L 240.562123 -46.125875 
L 242.232151 -46.125875 
L 243.902178 -46.125875 
L 245.572206 -46.125875 
L 247.242233 -46.125875 
L 248.91226 -46.125875 
L 250.582288 -46.125875 
L 252.252315 -46.125875 
L 253.922343 -46.125875 
L 255.59237 -46.125875 
L 257.262397 -46.125875 
L 258.932425 -46.125875 
L 260.602452 -46.125875 
L 262.27248 -46.125875 
L 263.942507 -46.125875 
L 265.612534 -46.125875 
L 267.282562 -46.125875 
L 268.952589 -46.125875 
L 270.622617 -46.125875 
L 272.292644 -46.125875 
L 273.962672 -46.125875 
L 275.632699 -46.125875 
L 277.302726 -46.125875 
L 278.972754 -46.125875 
L 280.642781 -46.125875 
L 282.312809 -46.125875 
L 283.982836 -46.125875 
L 285.652863 -46.125875 
L 287.322891 -46.125875 
L 288.992918 -46.125875 
L 290.662946 -46.125875 
L 292.332973 -46.125875 
L 294.003 -46.125875 
L 295.673028 -46.125875 
L 297.343055 -46.125875 
L 299.013083 -46.125875 
L 300.68311 -46.125875 
L 302.353138 -46.125875 
L 304.023165 -46.125875 
L 305.693192 -46.125875 
L 307.36322 -46.125875 
L 309.033247 -46.125875 
L 310.703275 -46.125875 
L 312.373302 -46.125875 
L 314.043329 -46.125875 
L 315.713357 -46.125875 
L 317.383384 -46.125875 
L 319.053412 -46.125875 
L 320.723439 -46.125875 
L 322.393466 -46.125875 
L 324.063494 -46.125875 
L 325.733521 -46.125875 
L 327.403549 -46.125875 
L 329.073576 -46.125875 
L 330.743603 -46.125875 
L 332.413631 -46.125875 
L 334.083658 -46.125875 
L 335.753686 -46.125875 
L 337.423713 -46.125875 
L 339.093741 -46.125875 
L 340.763768 -46.125875 
L 342.433795 -46.125875 
L 344.103823 -46.125875 
L 345.77385 -46.125875 
L 347.443878 -46.125875 
L 349.113905 -46.125875 
L 350.783932 -46.125875 
L 352.45396 -46.125875 
L 354.123987 -46.125875 
L 355.794015 -46.125875 
L 357.464042 -46.125875 
L 359.134069 -46.125875 
L 360.804097 -46.125875 
L 362.474124 -46.125875 
L 364.144152 -46.125875 
L 365.814179 -46.125875 
L 367.484206 -46.125875 
L 369.154234 -46.125875 
L 370.824261 -46.125875 
L 372.494289 -46.125875 
L 374.164316 -46.125875 
L 375.834344 -46.125875 
L 377.504371 -46.125875 
L 379.174398 -46.125875 
L 380.844426 -46.125875 
L 382.514453 -46.125875 
L 384.184481 -46.125875 
L 385.854508 -46.125875 
L 387.524535 -46.125875 
L 389.194563 -46.125875 
L 390.86459 -46.125875 
L 392.534618 -46.125875 
L 394.204645 -46.125875 
L 395.874672 -46.125875 
L 397.5447 -46.125875 
L 399.214727 -46.125875 
L 399.214727 -46.144477 
L 399.214727 -46.144477 
L 397.5447 -46.184449 
L 395.874672 -46.284064 
L 394.204645 -46.492757 
L 392.534618 -46.858374 
L 390.86459 -47.390734 
L 389.194563 -48.031933 
L 387.524535 -48.675328 
L 385.854508 -49.243805 
L 384.184481 -49.769324 
L 382.514453 -50.387954 
L 380.844426 -51.233343 
L 379.174398 -52.318325 
L 377.504371 -53.520672 
L 375.834344 -54.697402 
L 374.164316 -55.828131 
L 372.494289 -57.052506 
L 370.824261 -58.559608 
L 369.154234 -60.420169 
L 367.484206 -62.488898 
L 365.814179 -64.420512 
L 364.144152 -65.760866 
L 362.474124 -66.083798 
L 360.804097 -65.169626 
L 359.134069 -63.162189 
L 357.464042 -60.572667 
L 355.794015 -58.074372 
L 354.123987 -56.213281 
L 352.45396 -55.226301 
L 350.783932 -55.036526 
L 349.113905 -55.354918 
L 347.443878 -55.810319 
L 345.77385 -56.085461 
L 344.103823 -56.030821 
L 342.433795 -55.691163 
L 340.763768 -55.219943 
L 339.093741 -54.756735 
L 337.423713 -54.369425 
L 335.753686 -54.07588 
L 334.083658 -53.877118 
L 332.413631 -53.75614 
L 330.743603 -53.67026 
L 329.073576 -53.577452 
L 327.403549 -53.47971 
L 325.733521 -53.431367 
L 324.063494 -53.500213 
L 322.393466 -53.726901 
L 320.723439 -54.131528 
L 319.053412 -54.77094 
L 317.383384 -55.806607 
L 315.713357 -57.527013 
L 314.043329 -60.280493 
L 312.373302 -64.311106 
L 310.703275 -69.548199 
L 309.033247 -75.464687 
L 307.36322 -81.133444 
L 305.693192 -85.506101 
L 304.023165 -87.763165 
L 302.353138 -87.528259 
L 300.68311 -84.887353 
L 299.013083 -80.319921 
L 297.343055 -74.625634 
L 295.673028 -68.796281 
L 294.003 -63.770809 
L 292.332973 -60.155412 
L 290.662946 -58.087528 
L 288.992918 -57.325538 
L 287.322891 -57.456134 
L 285.652863 -58.044994 
L 283.982836 -58.679551 
L 282.312809 -59.001177 
L 280.642781 -58.807146 
L 278.972754 -58.14959 
L 277.302726 -57.292135 
L 275.632699 -56.520362 
L 273.962672 -55.969873 
L 272.292644 -55.610086 
L 270.622617 -55.344801 
L 268.952589 -55.099376 
L 267.282562 -54.841315 
L 265.612534 -54.572614 
L 263.942507 -54.320713 
L 262.27248 -54.11404 
L 260.602452 -53.953141 
L 258.932425 -53.83128 
L 257.262397 -53.820396 
L 255.59237 -54.138602 
L 253.922343 -55.083298 
L 252.252315 -56.823532 
L 250.582288 -59.204354 
L 248.91226 -61.750499 
L 247.242233 -63.904576 
L 245.572206 -65.328762 
L 243.902178 -66.041312 
L 242.232151 -66.310492 
L 240.562123 -66.43592 
L 238.892096 -66.606785 
L 237.222069 -66.908044 
L 235.552041 -67.406348 
L 233.882014 -68.220912 
L 232.211986 -69.540117 
L 230.541959 -71.587851 
L 228.871931 -74.560214 
L 227.201904 -78.570058 
L 225.531877 -83.628225 
L 223.861849 -89.641936 
L 222.191822 -96.395588 
L 220.521794 -103.534792 
L 218.851767 -110.604872 
L 217.18174 -117.133256 
L 215.511712 -122.681143 
L 213.841685 -126.817438 
L 212.171657 -129.053613 
L 210.50163 -128.846189 
L 208.831603 -125.76485 
L 207.161575 -119.795924 
L 205.491548 -111.577324 
L 203.82152 -102.337043 
L 202.151493 -93.50055 
L 200.481466 -86.164698 
L 198.811438 -80.718044 
L 197.141411 -76.80793 
L 195.471383 -73.675891 
L 193.801356 -70.663328 
L 192.131328 -67.563302 
L 190.461301 -64.607277 
L 188.791274 -62.160941 
L 187.121246 -60.401179 
L 185.451219 -59.201246 
L 183.781191 -58.25363 
L 182.111164 -57.290866 
L 180.441137 -56.229574 
L 178.771109 -55.159945 
L 177.101082 -54.236392 
L 175.431054 -53.574598 
L 173.761027 -53.205965 
L 172.091 -53.077595 
L 170.420972 -53.079028 
L 168.750945 -53.085466 
L 167.080917 -52.993592 
L 165.41089 -52.72913 
L 163.740862 -52.244156 
L 162.070835 -51.537361 
L 160.400808 -50.687598 
L 158.73078 -49.850487 
L 157.060753 -49.193317 
L 155.390725 -48.809407 
L 153.720698 -48.682248 
L 152.050671 -48.726733 
L 150.380643 -48.863309 
L 148.710616 -49.057485 
L 147.040588 -49.302606 
L 145.370561 -49.578197 
L 143.700534 -49.823894 
L 142.030506 -49.946458 
L 140.360479 -49.859516 
L 138.690451 -49.536276 
L 137.020424 -49.034029 
L 135.350397 -48.462813 
L 133.680369 -47.924636 
L 132.010342 -47.480493 
L 130.340314 -47.166121 
L 128.670287 -47.02039 
L 127.000259 -47.0824 
L 125.330232 -47.355998 
L 123.660205 -47.779118 
L 121.990177 -48.231773 
L 120.32015 -48.580039 
L 118.650122 -48.7237 
L 116.980095 -48.622254 
L 115.310068 -48.301669 
L 113.64004 -47.851744 
L 111.970013 -47.407918 
L 110.299985 -47.108421 
L 108.629958 -47.038154 
L 106.959931 -47.18676 
L 105.289903 -47.445425 
L 103.619876 -47.653032 
L 101.949848 -47.67714 
L 100.279821 -47.483488 
L 98.609794 -47.144032 
L 96.939766 -46.779315 
L 95.269739 -46.485118 
L 93.599711 -46.297135 
L 91.929684 -46.203866 
L 90.259656 -46.180022 
L 88.589629 -46.210938 
L 86.919602 -46.29662 
L 85.249574 -46.438416 
L 83.579547 -46.618902 
L 81.909519 -46.791513 
L 80.239492 -46.894399 
L 78.569465 -46.884607 
L 76.899437 -46.766384 
L 75.22941 -46.588223 
L 73.559382 -46.411251 
L 71.889355 -46.276492 
L 70.219328 -46.193848 
L 68.5493 -46.152105 
L 66.879273 -46.13453 
z
" style="stroke: #f19e38"/>
    </defs>
    <g clip-path="url(#p978942ba01)">
     <use xlink:href="#m6e111f44a7" x="0" y="144" style="fill: #f19e38; fill-opacity: 0.1; stroke: #f19e38"/>
    </g>
   </g>
   <g id="matplotlib.axis_1">
    <g id="xtick_1">
     <g id="line2d_1">
      <defs>
       <path id="m2b577a5a2e" d="M 0 0 
L 0 3.5 
" style="stroke: #000000; stroke-width: 0.8"/>
      </defs>
      <g>
       <use xlink:href="#m2b577a5a2e" x="56.57726" y="97.874125" style="stroke: #000000; stroke-width: 0.8"/>
      </g>
     </g>
     <g id="text_1">
      <!-- $\mathdefault{10^{-2}}$ -->
      <g transform="translate(46.67726 115.186625) scale(0.1 -0.1)">
       <defs>
        <path id="ArialMT-31" d="M 2384 0 
L 1822 0 
L 1822 3584 
Q 1619 3391 1289 3197 
Q 959 3003 697 2906 
L 697 3450 
Q 1169 3672 1522 3987 
Q 1875 4303 2022 4600 
L 2384 4600 
L 2384 0 
z
" transform="scale(0.015625)"/>
        <path id="ArialMT-30" d="M 266 2259 
Q 266 3072 433 3567 
Q 600 4063 929 4331 
Q 1259 4600 1759 4600 
Q 2128 4600 2406 4451 
Q 2684 4303 2865 4023 
Q 3047 3744 3150 3342 
Q 3253 2941 3253 2259 
Q 3253 1453 3087 958 
Q 2922 463 2592 192 
Q 2263 -78 1759 -78 
Q 1097 -78 719 397 
Q 266 969 266 2259 
z
M 844 2259 
Q 844 1131 1108 757 
Q 1372 384 1759 384 
Q 2147 384 2411 759 
Q 2675 1134 2675 2259 
Q 2675 3391 2411 3762 
Q 2147 4134 1753 4134 
Q 1366 4134 1134 3806 
Q 844 3388 844 2259 
z
" transform="scale(0.015625)"/>
        <path id="ArialMT-2212" d="M 3381 1997 
L 356 1997 
L 356 2522 
L 3381 2522 
L 3381 1997 
z
" transform="scale(0.015625)"/>
        <path id="ArialMT-32" d="M 3222 541 
L 3222 0 
L 194 0 
Q 188 203 259 391 
Q 375 700 629 1000 
Q 884 1300 1366 1694 
Q 2113 2306 2375 2664 
Q 2638 3022 2638 3341 
Q 2638 3675 2398 3904 
Q 2159 4134 1775 4134 
Q 1369 4134 1125 3890 
Q 881 3647 878 3216 
L 300 3275 
Q 359 3922 746 4261 
Q 1134 4600 1788 4600 
Q 2447 4600 2831 4234 
Q 3216 3869 3216 3328 
Q 3216 3053 3103 2787 
Q 2991 2522 2730 2228 
Q 2469 1934 1863 1422 
Q 1356 997 1212 845 
Q 1069 694 975 541 
L 3222 541 
z
" transform="scale(0.015625)"/>
       </defs>
       <use xlink:href="#ArialMT-31" transform="translate(0 0.99375)"/>
       <use xlink:href="#ArialMT-30" transform="translate(55.615234 0.99375)"/>
       <use xlink:href="#ArialMT-2212" transform="translate(112.972813 70.6875) scale(0.7)"/>
       <use xlink:href="#ArialMT-32" transform="translate(153.851719 70.6875) scale(0.7)"/>
      </g>
     </g>
    </g>
    <g id="xtick_2">
     <g id="line2d_2">
      <g>
       <use xlink:href="#m2b577a5a2e" x="132.861989" y="97.874125" style="stroke: #000000; stroke-width: 0.8"/>
      </g>
     </g>
     <g id="text_2">
      <!-- $\mathdefault{10^{-1}}$ -->
      <g transform="translate(122.961989 115.186625) scale(0.1 -0.1)">
       <use xlink:href="#ArialMT-31" transform="translate(0 0.99375)"/>
       <use xlink:href="#ArialMT-30" transform="translate(55.615234 0.99375)"/>
       <use xlink:href="#ArialMT-2212" transform="translate(112.972813 70.6875) scale(0.7)"/>
       <use xlink:href="#ArialMT-31" transform="translate(153.851719 70.6875) scale(0.7)"/>
      </g>
     </g>
    </g>
    <g id="xtick_3">
     <g id="line2d_3">
      <g>
       <use xlink:href="#m2b577a5a2e" x="209.146719" y="97.874125" style="stroke: #000000; stroke-width: 0.8"/>
      </g>
     </g>
     <g id="text_3">
      <!-- $\mathdefault{10^{0}}$ -->
      <g transform="translate(201.296719 115.186625) scale(0.1 -0.1)">
       <use xlink:href="#ArialMT-31" transform="translate(0 0.99375)"/>
       <use xlink:href="#ArialMT-30" transform="translate(55.615234 0.99375)"/>
       <use xlink:href="#ArialMT-30" transform="translate(112.972813 70.6875) scale(0.7)"/>
      </g>
     </g>
    </g>
    <g id="xtick_4">
     <g id="line2d_4">
      <g>
       <use xlink:href="#m2b577a5a2e" x="285.431448" y="97.874125" style="stroke: #000000; stroke-width: 0.8"/>
      </g>
     </g>
     <g id="text_4">
      <!-- $\mathdefault{10^{1}}$ -->
      <g transform="translate(277.581448 115.186625) scale(0.1 -0.1)">
       <use xlink:href="#ArialMT-31" transform="translate(0 0.99375)"/>
       <use xlink:href="#ArialMT-30" transform="translate(55.615234 0.99375)"/>
       <use xlink:href="#ArialMT-31" transform="translate(112.972813 70.6875) scale(0.7)"/>
      </g>
     </g>
    </g>
    <g id="xtick_5">
     <g id="line2d_5">
      <g>
       <use xlink:href="#m2b577a5a2e" x="361.716177" y="97.874125" style="stroke: #000000; stroke-width: 0.8"/>
      </g>
     </g>
     <g id="text_5">
      <!-- $\mathdefault{10^{2}}$ -->
      <g transform="translate(353.866177 115.186625) scale(0.1 -0.1)">
       <use xlink:href="#ArialMT-31" transform="translate(0 0.99375)"/>
       <use xlink:href="#ArialMT-30" transform="translate(55.615234 0.99375)"/>
       <use xlink:href="#ArialMT-32" transform="translate(112.972813 70.6875) scale(0.7)"/>
      </g>
     </g>
    </g>
    <g id="xtick_6">
     <g id="line2d_6">
      <defs>
       <path id="mcf25632ae2" d="M 0 0 
L 0 2 
" style="stroke: #000000; stroke-width: 0.6"/>
      </defs>
      <g>
       <use xlink:href="#mcf25632ae2" x="53.086662" y="97.874125" style="stroke: #000000; stroke-width: 0.6"/>
      </g>
     </g>
    </g>
    <g id="xtick_7">
     <g id="line2d_7">
      <g>
       <use xlink:href="#mcf25632ae2" x="79.541252" y="97.874125" style="stroke: #000000; stroke-width: 0.6"/>
      </g>
     </g>
    </g>
    <g id="xtick_8">
     <g id="line2d_8">
      <g>
       <use xlink:href="#mcf25632ae2" x="92.974326" y="97.874125" style="stroke: #000000; stroke-width: 0.6"/>
      </g>
     </g>
    </g>
    <g id="xtick_9">
     <g id="line2d_9">
      <g>
       <use xlink:href="#mcf25632ae2" x="102.505243" y="97.874125" style="stroke: #000000; stroke-width: 0.6"/>
      </g>
     </g>
    </g>
    <g id="xtick_10">
     <g id="line2d_10">
      <g>
       <use xlink:href="#mcf25632ae2" x="109.897997" y="97.874125" style="stroke: #000000; stroke-width: 0.6"/>
      </g>
     </g>
    </g>
    <g id="xtick_11">
     <g id="line2d_11">
      <g>
       <use xlink:href="#mcf25632ae2" x="115.938317" y="97.874125" style="stroke: #000000; stroke-width: 0.6"/>
      </g>
     </g>
    </g>
    <g id="xtick_12">
     <g id="line2d_12">
      <g>
       <use xlink:href="#mcf25632ae2" x="121.045335" y="97.874125" style="stroke: #000000; stroke-width: 0.6"/>
      </g>
     </g>
    </g>
    <g id="xtick_13">
     <g id="line2d_13">
      <g>
       <use xlink:href="#mcf25632ae2" x="125.469235" y="97.874125" style="stroke: #000000; stroke-width: 0.6"/>
      </g>
     </g>
    </g>
    <g id="xtick_14">
     <g id="line2d_14">
      <g>
       <use xlink:href="#mcf25632ae2" x="129.371391" y="97.874125" style="stroke: #000000; stroke-width: 0.6"/>
      </g>
     </g>
    </g>
    <g id="xtick_15">
     <g id="line2d_15">
      <g>
       <use xlink:href="#mcf25632ae2" x="155.825981" y="97.874125" style="stroke: #000000; stroke-width: 0.6"/>
      </g>
     </g>
    </g>
    <g id="xtick_16">
     <g id="line2d_16">
      <g>
       <use xlink:href="#mcf25632ae2" x="169.259055" y="97.874125" style="stroke: #000000; stroke-width: 0.6"/>
      </g>
     </g>
    </g>
    <g id="xtick_17">
     <g id="line2d_17">
      <g>
       <use xlink:href="#mcf25632ae2" x="178.789973" y="97.874125" style="stroke: #000000; stroke-width: 0.6"/>
      </g>
     </g>
    </g>
    <g id="xtick_18">
     <g id="line2d_18">
      <g>
       <use xlink:href="#mcf25632ae2" x="186.182727" y="97.874125" style="stroke: #000000; stroke-width: 0.6"/>
      </g>
     </g>
    </g>
    <g id="xtick_19">
     <g id="line2d_19">
      <g>
       <use xlink:href="#mcf25632ae2" x="192.223047" y="97.874125" style="stroke: #000000; stroke-width: 0.6"/>
      </g>
     </g>
    </g>
    <g id="xtick_20">
     <g id="line2d_20">
      <g>
       <use xlink:href="#mcf25632ae2" x="197.330064" y="97.874125" style="stroke: #000000; stroke-width: 0.6"/>
      </g>
     </g>
    </g>
    <g id="xtick_21">
     <g id="line2d_21">
      <g>
       <use xlink:href="#mcf25632ae2" x="201.753964" y="97.874125" style="stroke: #000000; stroke-width: 0.6"/>
      </g>
     </g>
    </g>
    <g id="xtick_22">
     <g id="line2d_22">
      <g>
       <use xlink:href="#mcf25632ae2" x="205.656121" y="97.874125" style="stroke: #000000; stroke-width: 0.6"/>
      </g>
     </g>
    </g>
    <g id="xtick_23">
     <g id="line2d_23">
      <g>
       <use xlink:href="#mcf25632ae2" x="232.11071" y="97.874125" style="stroke: #000000; stroke-width: 0.6"/>
      </g>
     </g>
    </g>
    <g id="xtick_24">
     <g id="line2d_24">
      <g>
       <use xlink:href="#mcf25632ae2" x="245.543784" y="97.874125" style="stroke: #000000; stroke-width: 0.6"/>
      </g>
     </g>
    </g>
    <g id="xtick_25">
     <g id="line2d_25">
      <g>
       <use xlink:href="#mcf25632ae2" x="255.074702" y="97.874125" style="stroke: #000000; stroke-width: 0.6"/>
      </g>
     </g>
    </g>
    <g id="xtick_26">
     <g id="line2d_26">
      <g>
       <use xlink:href="#mcf25632ae2" x="262.467456" y="97.874125" style="stroke: #000000; stroke-width: 0.6"/>
      </g>
     </g>
    </g>
    <g id="xtick_27">
     <g id="line2d_27">
      <g>
       <use xlink:href="#mcf25632ae2" x="268.507776" y="97.874125" style="stroke: #000000; stroke-width: 0.6"/>
      </g>
     </g>
    </g>
    <g id="xtick_28">
     <g id="line2d_28">
      <g>
       <use xlink:href="#mcf25632ae2" x="273.614794" y="97.874125" style="stroke: #000000; stroke-width: 0.6"/>
      </g>
     </g>
    </g>
    <g id="xtick_29">
     <g id="line2d_29">
      <g>
       <use xlink:href="#mcf25632ae2" x="278.038694" y="97.874125" style="stroke: #000000; stroke-width: 0.6"/>
      </g>
     </g>
    </g>
    <g id="xtick_30">
     <g id="line2d_30">
      <g>
       <use xlink:href="#mcf25632ae2" x="281.94085" y="97.874125" style="stroke: #000000; stroke-width: 0.6"/>
      </g>
     </g>
    </g>
    <g id="xtick_31">
     <g id="line2d_31">
      <g>
       <use xlink:href="#mcf25632ae2" x="308.39544" y="97.874125" style="stroke: #000000; stroke-width: 0.6"/>
      </g>
     </g>
    </g>
    <g id="xtick_32">
     <g id="line2d_32">
      <g>
       <use xlink:href="#mcf25632ae2" x="321.828514" y="97.874125" style="stroke: #000000; stroke-width: 0.6"/>
      </g>
     </g>
    </g>
    <g id="xtick_33">
     <g id="line2d_33">
      <g>
       <use xlink:href="#mcf25632ae2" x="331.359432" y="97.874125" style="stroke: #000000; stroke-width: 0.6"/>
      </g>
     </g>
    </g>
    <g id="xtick_34">
     <g id="line2d_34">
      <g>
       <use xlink:href="#mcf25632ae2" x="338.752186" y="97.874125" style="stroke: #000000; stroke-width: 0.6"/>
      </g>
     </g>
    </g>
    <g id="xtick_35">
     <g id="line2d_35">
      <g>
       <use xlink:href="#mcf25632ae2" x="344.792506" y="97.874125" style="stroke: #000000; stroke-width: 0.6"/>
      </g>
     </g>
    </g>
    <g id="xtick_36">
     <g id="line2d_36">
      <g>
       <use xlink:href="#mcf25632ae2" x="349.899523" y="97.874125" style="stroke: #000000; stroke-width: 0.6"/>
      </g>
     </g>
    </g>
    <g id="xtick_37">
     <g id="line2d_37">
      <g>
       <use xlink:href="#mcf25632ae2" x="354.323423" y="97.874125" style="stroke: #000000; stroke-width: 0.6"/>
      </g>
     </g>
    </g>
    <g id="xtick_38">
     <g id="line2d_38">
      <g>
       <use xlink:href="#mcf25632ae2" x="358.22558" y="97.874125" style="stroke: #000000; stroke-width: 0.6"/>
      </g>
     </g>
    </g>
    <g id="xtick_39">
     <g id="line2d_39">
      <g>
       <use xlink:href="#mcf25632ae2" x="384.680169" y="97.874125" style="stroke: #000000; stroke-width: 0.6"/>
      </g>
     </g>
    </g>
    <g id="xtick_40">
     <g id="line2d_40">
      <g>
       <use xlink:href="#mcf25632ae2" x="398.113243" y="97.874125" style="stroke: #000000; stroke-width: 0.6"/>
      </g>
     </g>
    </g>
    <g id="xtick_41">
     <g id="line2d_41">
      <g>
       <use xlink:href="#mcf25632ae2" x="407.644161" y="97.874125" style="stroke: #000000; stroke-width: 0.6"/>
      </g>
     </g>
    </g>
    <g id="xtick_42">
     <g id="line2d_42">
      <g>
       <use xlink:href="#mcf25632ae2" x="415.036915" y="97.874125" style="stroke: #000000; stroke-width: 0.6"/>
      </g>
     </g>
    </g>
    <g id="text_6">
     <!-- Log Weights [mg] -->
     <g transform="translate(194.230594 128.331937) scale(0.1 -0.1)">
      <defs>
       <path id="ArialMT-4c" d="M 469 0 
L 469 4581 
L 1075 4581 
L 1075 541 
L 3331 541 
L 3331 0 
L 469 0 
z
" transform="scale(0.015625)"/>
       <path id="ArialMT-6f" d="M 213 1659 
Q 213 2581 725 3025 
Q 1153 3394 1769 3394 
Q 2453 3394 2887 2945 
Q 3322 2497 3322 1706 
Q 3322 1066 3130 698 
Q 2938 331 2570 128 
Q 2203 -75 1769 -75 
Q 1072 -75 642 372 
Q 213 819 213 1659 
z
M 791 1659 
Q 791 1022 1069 705 
Q 1347 388 1769 388 
Q 2188 388 2466 706 
Q 2744 1025 2744 1678 
Q 2744 2294 2464 2611 
Q 2184 2928 1769 2928 
Q 1347 2928 1069 2612 
Q 791 2297 791 1659 
z
" transform="scale(0.015625)"/>
       <path id="ArialMT-67" d="M 319 -275 
L 866 -356 
Q 900 -609 1056 -725 
Q 1266 -881 1628 -881 
Q 2019 -881 2231 -725 
Q 2444 -569 2519 -288 
Q 2563 -116 2559 434 
Q 2191 0 1641 0 
Q 956 0 581 494 
Q 206 988 206 1678 
Q 206 2153 378 2554 
Q 550 2956 876 3175 
Q 1203 3394 1644 3394 
Q 2231 3394 2613 2919 
L 2613 3319 
L 3131 3319 
L 3131 450 
Q 3131 -325 2973 -648 
Q 2816 -972 2473 -1159 
Q 2131 -1347 1631 -1347 
Q 1038 -1347 672 -1080 
Q 306 -813 319 -275 
z
M 784 1719 
Q 784 1066 1043 766 
Q 1303 466 1694 466 
Q 2081 466 2343 764 
Q 2606 1063 2606 1700 
Q 2606 2309 2336 2618 
Q 2066 2928 1684 2928 
Q 1309 2928 1046 2623 
Q 784 2319 784 1719 
z
" transform="scale(0.015625)"/>
       <path id="ArialMT-20" transform="scale(0.015625)"/>
       <path id="ArialMT-57" d="M 1294 0 
L 78 4581 
L 700 4581 
L 1397 1578 
Q 1509 1106 1591 641 
Q 1766 1375 1797 1488 
L 2669 4581 
L 3400 4581 
L 4056 2263 
Q 4303 1400 4413 641 
Q 4500 1075 4641 1638 
L 5359 4581 
L 5969 4581 
L 4713 0 
L 4128 0 
L 3163 3491 
Q 3041 3928 3019 4028 
Q 2947 3713 2884 3491 
L 1913 0 
L 1294 0 
z
" transform="scale(0.015625)"/>
       <path id="ArialMT-65" d="M 2694 1069 
L 3275 997 
Q 3138 488 2766 206 
Q 2394 -75 1816 -75 
Q 1088 -75 661 373 
Q 234 822 234 1631 
Q 234 2469 665 2931 
Q 1097 3394 1784 3394 
Q 2450 3394 2872 2941 
Q 3294 2488 3294 1666 
Q 3294 1616 3291 1516 
L 816 1516 
Q 847 969 1125 678 
Q 1403 388 1819 388 
Q 2128 388 2347 550 
Q 2566 713 2694 1069 
z
M 847 1978 
L 2700 1978 
Q 2663 2397 2488 2606 
Q 2219 2931 1791 2931 
Q 1403 2931 1139 2672 
Q 875 2413 847 1978 
z
" transform="scale(0.015625)"/>
       <path id="ArialMT-69" d="M 425 3934 
L 425 4581 
L 988 4581 
L 988 3934 
L 425 3934 
z
M 425 0 
L 425 3319 
L 988 3319 
L 988 0 
L 425 0 
z
" transform="scale(0.015625)"/>
       <path id="ArialMT-68" d="M 422 0 
L 422 4581 
L 984 4581 
L 984 2938 
Q 1378 3394 1978 3394 
Q 2347 3394 2619 3248 
Q 2891 3103 3008 2847 
Q 3125 2591 3125 2103 
L 3125 0 
L 2563 0 
L 2563 2103 
Q 2563 2525 2380 2717 
Q 2197 2909 1863 2909 
Q 1613 2909 1392 2779 
Q 1172 2650 1078 2428 
Q 984 2206 984 1816 
L 984 0 
L 422 0 
z
" transform="scale(0.015625)"/>
       <path id="ArialMT-74" d="M 1650 503 
L 1731 6 
Q 1494 -44 1306 -44 
Q 1000 -44 831 53 
Q 663 150 594 308 
Q 525 466 525 972 
L 525 2881 
L 113 2881 
L 113 3319 
L 525 3319 
L 525 4141 
L 1084 4478 
L 1084 3319 
L 1650 3319 
L 1650 2881 
L 1084 2881 
L 1084 941 
Q 1084 700 1114 631 
Q 1144 563 1211 522 
Q 1278 481 1403 481 
Q 1497 481 1650 503 
z
" transform="scale(0.015625)"/>
       <path id="ArialMT-73" d="M 197 991 
L 753 1078 
Q 800 744 1014 566 
Q 1228 388 1613 388 
Q 2000 388 2187 545 
Q 2375 703 2375 916 
Q 2375 1106 2209 1216 
Q 2094 1291 1634 1406 
Q 1016 1563 777 1677 
Q 538 1791 414 1992 
Q 291 2194 291 2438 
Q 291 2659 392 2848 
Q 494 3038 669 3163 
Q 800 3259 1026 3326 
Q 1253 3394 1513 3394 
Q 1903 3394 2198 3281 
Q 2494 3169 2634 2976 
Q 2775 2784 2828 2463 
L 2278 2388 
Q 2241 2644 2061 2787 
Q 1881 2931 1553 2931 
Q 1166 2931 1000 2803 
Q 834 2675 834 2503 
Q 834 2394 903 2306 
Q 972 2216 1119 2156 
Q 1203 2125 1616 2013 
Q 2213 1853 2448 1751 
Q 2684 1650 2818 1456 
Q 2953 1263 2953 975 
Q 2953 694 2789 445 
Q 2625 197 2315 61 
Q 2006 -75 1616 -75 
Q 969 -75 630 194 
Q 291 463 197 991 
z
" transform="scale(0.015625)"/>
       <path id="ArialMT-5b" d="M 434 -1272 
L 434 4581 
L 1675 4581 
L 1675 4116 
L 997 4116 
L 997 -806 
L 1675 -806 
L 1675 -1272 
L 434 -1272 
z
" transform="scale(0.015625)"/>
       <path id="ArialMT-6d" d="M 422 0 
L 422 3319 
L 925 3319 
L 925 2853 
Q 1081 3097 1340 3245 
Q 1600 3394 1931 3394 
Q 2300 3394 2536 3241 
Q 2772 3088 2869 2813 
Q 3263 3394 3894 3394 
Q 4388 3394 4653 3120 
Q 4919 2847 4919 2278 
L 4919 0 
L 4359 0 
L 4359 2091 
Q 4359 2428 4304 2576 
Q 4250 2725 4106 2815 
Q 3963 2906 3769 2906 
Q 3419 2906 3187 2673 
Q 2956 2441 2956 1928 
L 2956 0 
L 2394 0 
L 2394 2156 
Q 2394 2531 2256 2718 
Q 2119 2906 1806 2906 
Q 1569 2906 1367 2781 
Q 1166 2656 1075 2415 
Q 984 2175 984 1722 
L 984 0 
L 422 0 
z
" transform="scale(0.015625)"/>
       <path id="ArialMT-5d" d="M 1363 -1272 
L 122 -1272 
L 122 -806 
L 800 -806 
L 800 4116 
L 122 4116 
L 122 4581 
L 1363 4581 
L 1363 -1272 
z
" transform="scale(0.015625)"/>
      </defs>
      <use xlink:href="#ArialMT-4c"/>
      <use xlink:href="#ArialMT-6f" x="55.615234"/>
      <use xlink:href="#ArialMT-67" x="111.230469"/>
      <use xlink:href="#ArialMT-20" x="166.845703"/>
      <use xlink:href="#ArialMT-57" x="194.628906"/>
      <use xlink:href="#ArialMT-65" x="287.263672"/>
      <use xlink:href="#ArialMT-69" x="342.878906"/>
      <use xlink:href="#ArialMT-67" x="365.095703"/>
      <use xlink:href="#ArialMT-68" x="420.710938"/>
      <use xlink:href="#ArialMT-74" x="476.326172"/>
      <use xlink:href="#ArialMT-73" x="504.109375"/>
      <use xlink:href="#ArialMT-20" x="554.109375"/>
      <use xlink:href="#ArialMT-5b" x="581.892578"/>
      <use xlink:href="#ArialMT-6d" x="609.675781"/>
      <use xlink:href="#ArialMT-67" x="692.976562"/>
      <use xlink:href="#ArialMT-5d" x="748.591797"/>
     </g>
    </g>
   </g>
   <g id="matplotlib.axis_2">
    <g id="ytick_1">
     <g id="line2d_43">
      <defs>
       <path id="mfac40aa9f3" d="M 0 0 
L -3.5 0 
" style="stroke: #000000; stroke-width: 0.8"/>
      </defs>
      <g>
       <use xlink:href="#mfac40aa9f3" x="50.2625" y="97.874125" style="stroke: #000000; stroke-width: 0.8"/>
      </g>
     </g>
     <g id="text_7">
      <!-- 0.0 -->
      <g transform="translate(29.3625 101.453031) scale(0.1 -0.1)">
       <defs>
        <path id="ArialMT-2e" d="M 581 0 
L 581 641 
L 1222 641 
L 1222 0 
L 581 0 
z
" transform="scale(0.015625)"/>
       </defs>
       <use xlink:href="#ArialMT-30"/>
       <use xlink:href="#ArialMT-2e" x="55.615234"/>
       <use xlink:href="#ArialMT-30" x="83.398438"/>
      </g>
     </g>
    </g>
    <g id="ytick_2">
     <g id="line2d_44">
      <g>
       <use xlink:href="#mfac40aa9f3" x="50.2625" y="57.732847" style="stroke: #000000; stroke-width: 0.8"/>
      </g>
     </g>
     <g id="text_8">
      <!-- 0.5 -->
      <g transform="translate(29.3625 61.311754) scale(0.1 -0.1)">
       <defs>
        <path id="ArialMT-35" d="M 266 1200 
L 856 1250 
Q 922 819 1161 601 
Q 1400 384 1738 384 
Q 2144 384 2425 690 
Q 2706 997 2706 1503 
Q 2706 1984 2436 2262 
Q 2166 2541 1728 2541 
Q 1456 2541 1237 2417 
Q 1019 2294 894 2097 
L 366 2166 
L 809 4519 
L 3088 4519 
L 3088 3981 
L 1259 3981 
L 1013 2750 
Q 1425 3038 1878 3038 
Q 2478 3038 2890 2622 
Q 3303 2206 3303 1553 
Q 3303 931 2941 478 
Q 2500 -78 1738 -78 
Q 1113 -78 717 272 
Q 322 622 266 1200 
z
" transform="scale(0.015625)"/>
       </defs>
       <use xlink:href="#ArialMT-30"/>
       <use xlink:href="#ArialMT-2e" x="55.615234"/>
       <use xlink:href="#ArialMT-35" x="83.398438"/>
      </g>
     </g>
    </g>
    <g id="ytick_3">
     <g id="line2d_45">
      <g>
       <use xlink:href="#mfac40aa9f3" x="50.2625" y="17.59157" style="stroke: #000000; stroke-width: 0.8"/>
      </g>
     </g>
     <g id="text_9">
      <!-- 1.0 -->
      <g transform="translate(29.3625 21.170476) scale(0.1 -0.1)">
       <use xlink:href="#ArialMT-31"/>
       <use xlink:href="#ArialMT-2e" x="55.615234"/>
       <use xlink:href="#ArialMT-30" x="83.398438"/>
      </g>
     </g>
    </g>
    <g id="text_10">
     <!-- Density -->
     <g transform="translate(23.257812 71.008938) rotate(-90) scale(0.1 -0.1)">
      <defs>
       <path id="ArialMT-44" d="M 494 0 
L 494 4581 
L 2072 4581 
Q 2606 4581 2888 4516 
Q 3281 4425 3559 4188 
Q 3922 3881 4101 3404 
Q 4281 2928 4281 2316 
Q 4281 1794 4159 1391 
Q 4038 988 3847 723 
Q 3656 459 3429 307 
Q 3203 156 2883 78 
Q 2563 0 2147 0 
L 494 0 
z
M 1100 541 
L 2078 541 
Q 2531 541 2789 625 
Q 3047 709 3200 863 
Q 3416 1078 3536 1442 
Q 3656 1806 3656 2325 
Q 3656 3044 3420 3430 
Q 3184 3816 2847 3947 
Q 2603 4041 2063 4041 
L 1100 4041 
L 1100 541 
z
" transform="scale(0.015625)"/>
       <path id="ArialMT-6e" d="M 422 0 
L 422 3319 
L 928 3319 
L 928 2847 
Q 1294 3394 1984 3394 
Q 2284 3394 2536 3286 
Q 2788 3178 2913 3003 
Q 3038 2828 3088 2588 
Q 3119 2431 3119 2041 
L 3119 0 
L 2556 0 
L 2556 2019 
Q 2556 2363 2490 2533 
Q 2425 2703 2258 2804 
Q 2091 2906 1866 2906 
Q 1506 2906 1245 2678 
Q 984 2450 984 1813 
L 984 0 
L 422 0 
z
" transform="scale(0.015625)"/>
       <path id="ArialMT-79" d="M 397 -1278 
L 334 -750 
Q 519 -800 656 -800 
Q 844 -800 956 -737 
Q 1069 -675 1141 -563 
Q 1194 -478 1313 -144 
Q 1328 -97 1363 -6 
L 103 3319 
L 709 3319 
L 1400 1397 
Q 1534 1031 1641 628 
Q 1738 1016 1872 1384 
L 2581 3319 
L 3144 3319 
L 1881 -56 
Q 1678 -603 1566 -809 
Q 1416 -1088 1222 -1217 
Q 1028 -1347 759 -1347 
Q 597 -1347 397 -1278 
z
" transform="scale(0.015625)"/>
      </defs>
      <use xlink:href="#ArialMT-44"/>
      <use xlink:href="#ArialMT-65" x="72.216797"/>
      <use xlink:href="#ArialMT-6e" x="127.832031"/>
      <use xlink:href="#ArialMT-73" x="183.447266"/>
      <use xlink:href="#ArialMT-69" x="233.447266"/>
      <use xlink:href="#ArialMT-74" x="255.664062"/>
      <use xlink:href="#ArialMT-79" x="283.447266"/>
     </g>
    </g>
   </g>
   <g id="patch_3">
    <path d="M 50.2625 97.874125 
L 50.2625 10.8 
" style="fill: none; stroke: #000000; stroke-width: 0.8; stroke-linejoin: miter; stroke-linecap: square"/>
   </g>
   <g id="patch_4">
    <path d="M 50.2625 97.874125 
L 415.8315 97.874125 
" style="fill: none; stroke: #000000; stroke-width: 0.8; stroke-linejoin: miter; stroke-linecap: square"/>
   </g>
  </g>
  <g id="legend_1">
   <g id="text_11">
    <!-- Order_DNA -->
    <g transform="translate(453.270312 53.43125) scale(0.1 -0.1)">
     <defs>
      <path id="ArialMT-4f" d="M 309 2231 
Q 309 3372 921 4017 
Q 1534 4663 2503 4663 
Q 3138 4663 3647 4359 
Q 4156 4056 4423 3514 
Q 4691 2972 4691 2284 
Q 4691 1588 4409 1038 
Q 4128 488 3612 205 
Q 3097 -78 2500 -78 
Q 1853 -78 1343 234 
Q 834 547 571 1087 
Q 309 1628 309 2231 
z
M 934 2222 
Q 934 1394 1379 917 
Q 1825 441 2497 441 
Q 3181 441 3623 922 
Q 4066 1403 4066 2288 
Q 4066 2847 3877 3264 
Q 3688 3681 3323 3911 
Q 2959 4141 2506 4141 
Q 1863 4141 1398 3698 
Q 934 3256 934 2222 
z
" transform="scale(0.015625)"/>
      <path id="ArialMT-72" d="M 416 0 
L 416 3319 
L 922 3319 
L 922 2816 
Q 1116 3169 1280 3281 
Q 1444 3394 1641 3394 
Q 1925 3394 2219 3213 
L 2025 2691 
Q 1819 2813 1613 2813 
Q 1428 2813 1281 2702 
Q 1134 2591 1072 2394 
Q 978 2094 978 1738 
L 978 0 
L 416 0 
z
" transform="scale(0.015625)"/>
      <path id="ArialMT-64" d="M 2575 0 
L 2575 419 
Q 2259 -75 1647 -75 
Q 1250 -75 917 144 
Q 584 363 401 755 
Q 219 1147 219 1656 
Q 219 2153 384 2558 
Q 550 2963 881 3178 
Q 1213 3394 1622 3394 
Q 1922 3394 2156 3267 
Q 2391 3141 2538 2938 
L 2538 4581 
L 3097 4581 
L 3097 0 
L 2575 0 
z
M 797 1656 
Q 797 1019 1065 703 
Q 1334 388 1700 388 
Q 2069 388 2326 689 
Q 2584 991 2584 1609 
Q 2584 2291 2321 2609 
Q 2059 2928 1675 2928 
Q 1300 2928 1048 2622 
Q 797 2316 797 1656 
z
" transform="scale(0.015625)"/>
      <path id="ArialMT-5f" d="M -97 -1272 
L -97 -866 
L 3631 -866 
L 3631 -1272 
L -97 -1272 
z
" transform="scale(0.015625)"/>
      <path id="ArialMT-4e" d="M 488 0 
L 488 4581 
L 1109 4581 
L 3516 984 
L 3516 4581 
L 4097 4581 
L 4097 0 
L 3475 0 
L 1069 3600 
L 1069 0 
L 488 0 
z
" transform="scale(0.015625)"/>
      <path id="ArialMT-41" d="M -9 0 
L 1750 4581 
L 2403 4581 
L 4278 0 
L 3588 0 
L 3053 1388 
L 1138 1388 
L 634 0 
L -9 0 
z
M 1313 1881 
L 2866 1881 
L 2388 3150 
Q 2169 3728 2063 4100 
Q 1975 3659 1816 3225 
L 1313 1881 
z
" transform="scale(0.015625)"/>
     </defs>
     <use xlink:href="#ArialMT-4f"/>
     <use xlink:href="#ArialMT-72" x="77.783203"/>
     <use xlink:href="#ArialMT-64" x="111.083984"/>
     <use xlink:href="#ArialMT-65" x="166.699219"/>
     <use xlink:href="#ArialMT-72" x="222.314453"/>
     <use xlink:href="#ArialMT-5f" x="255.615234"/>
     <use xlink:href="#ArialMT-44" x="311.230469"/>
     <use xlink:href="#ArialMT-4e" x="383.447266"/>
     <use xlink:href="#ArialMT-41" x="455.664062"/>
    </g>
   </g>
   <g id="patch_5">
    <path d="M 430.925 67.576563 
L 450.925 67.576563 
L 450.925 60.576563 
L 430.925 60.576563 
z
" style="fill: #f19e38; fill-opacity: 0.1; stroke: #f19e38; stroke-linejoin: miter"/>
   </g>
   <g id="text_12">
    <!-- Trichoptera -->
    <g transform="translate(458.925 67.576563) scale(0.1 -0.1)">
     <defs>
      <path id="ArialMT-54" d="M 1659 0 
L 1659 4041 
L 150 4041 
L 150 4581 
L 3781 4581 
L 3781 4041 
L 2266 4041 
L 2266 0 
L 1659 0 
z
" transform="scale(0.015625)"/>
      <path id="ArialMT-63" d="M 2588 1216 
L 3141 1144 
Q 3050 572 2676 248 
Q 2303 -75 1759 -75 
Q 1078 -75 664 370 
Q 250 816 250 1647 
Q 250 2184 428 2587 
Q 606 2991 970 3192 
Q 1334 3394 1763 3394 
Q 2303 3394 2647 3120 
Q 2991 2847 3088 2344 
L 2541 2259 
Q 2463 2594 2264 2762 
Q 2066 2931 1784 2931 
Q 1359 2931 1093 2626 
Q 828 2322 828 1663 
Q 828 994 1084 691 
Q 1341 388 1753 388 
Q 2084 388 2306 591 
Q 2528 794 2588 1216 
z
" transform="scale(0.015625)"/>
      <path id="ArialMT-70" d="M 422 -1272 
L 422 3319 
L 934 3319 
L 934 2888 
Q 1116 3141 1344 3267 
Q 1572 3394 1897 3394 
Q 2322 3394 2647 3175 
Q 2972 2956 3137 2557 
Q 3303 2159 3303 1684 
Q 3303 1175 3120 767 
Q 2938 359 2589 142 
Q 2241 -75 1856 -75 
Q 1575 -75 1351 44 
Q 1128 163 984 344 
L 984 -1272 
L 422 -1272 
z
M 931 1641 
Q 931 1000 1190 694 
Q 1450 388 1819 388 
Q 2194 388 2461 705 
Q 2728 1022 2728 1688 
Q 2728 2322 2467 2637 
Q 2206 2953 1844 2953 
Q 1484 2953 1207 2617 
Q 931 2281 931 1641 
z
" transform="scale(0.015625)"/>
      <path id="ArialMT-61" d="M 2588 409 
Q 2275 144 1986 34 
Q 1697 -75 1366 -75 
Q 819 -75 525 192 
Q 231 459 231 875 
Q 231 1119 342 1320 
Q 453 1522 633 1644 
Q 813 1766 1038 1828 
Q 1203 1872 1538 1913 
Q 2219 1994 2541 2106 
Q 2544 2222 2544 2253 
Q 2544 2597 2384 2738 
Q 2169 2928 1744 2928 
Q 1347 2928 1158 2789 
Q 969 2650 878 2297 
L 328 2372 
Q 403 2725 575 2942 
Q 747 3159 1072 3276 
Q 1397 3394 1825 3394 
Q 2250 3394 2515 3294 
Q 2781 3194 2906 3042 
Q 3031 2891 3081 2659 
Q 3109 2516 3109 2141 
L 3109 1391 
Q 3109 606 3145 398 
Q 3181 191 3288 0 
L 2700 0 
Q 2613 175 2588 409 
z
M 2541 1666 
Q 2234 1541 1622 1453 
Q 1275 1403 1131 1340 
Q 988 1278 909 1158 
Q 831 1038 831 891 
Q 831 666 1001 516 
Q 1172 366 1500 366 
Q 1825 366 2078 508 
Q 2331 650 2450 897 
Q 2541 1088 2541 1459 
L 2541 1666 
z
" transform="scale(0.015625)"/>
     </defs>
     <use xlink:href="#ArialMT-54"/>
     <use xlink:href="#ArialMT-72" x="57.333984"/>
     <use xlink:href="#ArialMT-69" x="90.634766"/>
     <use xlink:href="#ArialMT-63" x="112.851562"/>
     <use xlink:href="#ArialMT-68" x="162.851562"/>
     <use xlink:href="#ArialMT-6f" x="218.466797"/>
     <use xlink:href="#ArialMT-70" x="274.082031"/>
     <use xlink:href="#ArialMT-74" x="329.697266"/>
     <use xlink:href="#ArialMT-65" x="357.480469"/>
     <use xlink:href="#ArialMT-72" x="413.095703"/>
     <use xlink:href="#ArialMT-61" x="446.396484"/>
    </g>
   </g>
   <g id="patch_6">
    <path d="M 430.925 81.721875 
L 450.925 81.721875 
L 450.925 74.721875 
L 430.925 74.721875 
z
" style="fill: #4397b0; fill-opacity: 0.1; stroke: #4397b0; stroke-linejoin: miter"/>
   </g>
   <g id="text_13">
    <!-- Ephemeroptera -->
    <g transform="translate(458.925 81.721875) scale(0.1 -0.1)">
     <defs>
      <path id="ArialMT-45" d="M 506 0 
L 506 4581 
L 3819 4581 
L 3819 4041 
L 1113 4041 
L 1113 2638 
L 3647 2638 
L 3647 2100 
L 1113 2100 
L 1113 541 
L 3925 541 
L 3925 0 
L 506 0 
z
" transform="scale(0.015625)"/>
     </defs>
     <use xlink:href="#ArialMT-45"/>
     <use xlink:href="#ArialMT-70" x="66.699219"/>
     <use xlink:href="#ArialMT-68" x="122.314453"/>
     <use xlink:href="#ArialMT-65" x="177.929688"/>
     <use xlink:href="#ArialMT-6d" x="233.544922"/>
     <use xlink:href="#ArialMT-65" x="316.845703"/>
     <use xlink:href="#ArialMT-72" x="372.460938"/>
     <use xlink:href="#ArialMT-6f" x="405.761719"/>
     <use xlink:href="#ArialMT-70" x="461.376953"/>
     <use xlink:href="#ArialMT-74" x="516.992188"/>
     <use xlink:href="#ArialMT-65" x="544.775391"/>
     <use xlink:href="#ArialMT-72" x="600.390625"/>
     <use xlink:href="#ArialMT-61" x="633.691406"/>
    </g>
   </g>
   <g id="patch_7">
    <path d="M 430.925 95.867188 
L 450.925 95.867188 
L 450.925 88.867188 
L 430.925 88.867188 
z
" style="fill: #a4cb73; fill-opacity: 0.1; stroke: #a4cb73; stroke-linejoin: miter"/>
   </g>
   <g id="text_14">
    <!-- Plecoptera -->
    <g transform="translate(458.925 95.867188) scale(0.1 -0.1)">
     <defs>
      <path id="ArialMT-50" d="M 494 0 
L 494 4581 
L 2222 4581 
Q 2678 4581 2919 4538 
Q 3256 4481 3484 4323 
Q 3713 4166 3852 3881 
Q 3991 3597 3991 3256 
Q 3991 2672 3619 2267 
Q 3247 1863 2275 1863 
L 1100 1863 
L 1100 0 
L 494 0 
z
M 1100 2403 
L 2284 2403 
Q 2872 2403 3119 2622 
Q 3366 2841 3366 3238 
Q 3366 3525 3220 3729 
Q 3075 3934 2838 4000 
Q 2684 4041 2272 4041 
L 1100 4041 
L 1100 2403 
z
" transform="scale(0.015625)"/>
      <path id="ArialMT-6c" d="M 409 0 
L 409 4581 
L 972 4581 
L 972 0 
L 409 0 
z
" transform="scale(0.015625)"/>
     </defs>
     <use xlink:href="#ArialMT-50"/>
     <use xlink:href="#ArialMT-6c" x="66.699219"/>
     <use xlink:href="#ArialMT-65" x="88.916016"/>
     <use xlink:href="#ArialMT-63" x="144.53125"/>
     <use xlink:href="#ArialMT-6f" x="194.53125"/>
     <use xlink:href="#ArialMT-70" x="250.146484"/>
     <use xlink:href="#ArialMT-74" x="305.761719"/>
     <use xlink:href="#ArialMT-65" x="333.544922"/>
     <use xlink:href="#ArialMT-72" x="389.160156"/>
     <use xlink:href="#ArialMT-61" x="422.460938"/>
    </g>
   </g>
  </g>
 </g>
 <defs>
  <clipPath id="p978942ba01">
   <rect x="50.2625" y="10.8" width="365.569" height="87.074125"/>
  </clipPath>
 </defs>
</svg>
